<svg width="387" height="264" viewBox="0 0 387 264" fill="none" xmlns="http://www.w3.org/2000/svg">
<rect x="1" y="9.84204" width="219.053" height="140.211" rx="9" fill="white" stroke="#00004E" stroke-width="2"/>
<g clip-path="url(#clip0_816_29318)">
<path d="M110.502 59.0498C106.785 54.6717 106.286 50.1346 106.502 48.4133L101.344 45.054L93.4752 44.4265C90.3728 46.8624 84.7893 53.5526 87.2749 60.8257C90.3818 69.9172 95.5442 75.9979 99.9927 75.559C104.441 75.1201 105.831 66.3872 106.111 65.7293C106.391 65.0713 106.526 62.0208 107.462 61.6419C108.398 61.2631 110.13 60.8343 110.502 59.0498Z" fill="white" stroke="#00004E" stroke-width="2" stroke-linecap="round"/>
<path d="M93.2831 78.783L93.4027 72.1067L87.6838 66.3098L82.0028 75.4394L93.2831 78.783Z" fill="white" stroke="#00004E" stroke-width="2"/>
<path d="M98.0053 53.3459C98.7504 50.8656 103.62 50.1655 105.962 50.1254L105.817 47.7329L102.116 47.3244L93.919 46.5573L89.2966 54.6923C88.5358 57.0882 87.7283 63.1161 90.5845 68.0605C94.1547 74.241 98.6079 76.5236 101.884 75.1975C104.505 74.1367 106.825 65.4015 106.685 62.0881L97.4647 65.5479C97.2573 62.9992 97.075 56.9906 98.0053 53.3459Z" fill="#00004E"/>
<path d="M122.318 118.418C112.694 94.717 110.897 81.4207 91.9169 77.4391C84.6686 74.6589 65.4099 70.7753 61.4429 79.3988C45.4841 114.09 49.7115 134.296 40.4767 150.132C32.985 162.979 -3.21389 234.977 -8.06814 251.353L75.4118 276.098C80.0048 265.709 83.8707 188.478 101.989 118.418C107.6 128.419 113.566 132.663 119.894 134.538C129.981 137.528 146.266 123.421 168.003 95.7892L160.265 89.526C153.543 95.7758 140.003 106.26 122.318 118.418Z" fill="white"/>
<path d="M94.2472 102.768C96.2796 108.677 100.008 114.887 101.989 118.418M101.989 118.418C107.6 128.419 113.566 132.663 119.894 134.538C129.981 137.528 146.266 123.421 168.003 95.7892L160.265 89.526C153.543 95.7758 140.003 106.26 122.318 118.418C112.694 94.717 110.897 81.4207 91.9169 77.4391C84.6686 74.6589 65.4099 70.7753 61.4429 79.3988C45.4841 114.09 49.7115 134.296 40.4767 150.132C32.985 162.979 -3.21389 234.977 -8.06814 251.353L75.4118 276.098C80.0048 265.709 83.8707 188.478 101.989 118.418Z" stroke="#00004E" stroke-width="2"/>
<path d="M100.434 48.5509L106.277 48.6015C107.116 46.6276 104.945 37.1572 97.6841 36.0113C90.4229 34.8653 86.1673 38.4942 85.6076 39.8102C85.0479 41.1261 78.2831 56.1198 73.4244 62.9886C68.5657 69.8575 46.9047 108.818 61.3852 114.977C77.4758 120.695 88.6081 81.114 93.2714 54.8285C93.7583 52.0841 97.6738 50.485 100.434 48.5509Z" fill="white" stroke="#00004E" stroke-width="2"/>
<path d="M106.373 43.6956C99.3305 42.6426 87.0083 41.6751 84.1212 40.4471" stroke="#00004E" stroke-width="3" stroke-linecap="round"/>
<ellipse cx="0.919742" cy="1.84165" rx="0.919742" ry="1.84165" transform="matrix(0.986705 -0.162523 0.160078 0.987104 102.715 52.2927)" fill="#00004E"/>
<path d="M131.527 150.316L98.369 133.737L94.3164 150.316H112.369H131.527Z" stroke="#00004E" stroke-width="2"/>
<path d="M98.0006 79.9473C93.2112 95.6666 79.9483 129.316 50.4746 138.158" stroke="#00004E" stroke-width="2"/>
<rect x="39.2656" y="121.058" width="32.1311" height="40.1639" rx="6" transform="rotate(24.9719 39.2656 121.058)" fill="#00004E"/>
<path d="M50.8429 110.526L44.5801 123.79" stroke="#00004E" stroke-width="2"/>
<path d="M169.805 91.403C169.767 84.4604 172.286 72.0163 182.664 77.7805" stroke="#00BF00" stroke-width="3"/>
<path d="M195.903 93.3198C194.647 96.3777 191.367 96.8956 189.884 96.7723C189.779 97.2467 189.523 98.5869 189.34 100.153C194.143 101.013 198.69 98.6243 199.643 92.7084C200.596 86.7924 202.112 85.9961 204.298 84.2672C204.15 83.9256 203.812 82.9752 203.637 81.9065C198.916 83.227 197.472 89.4974 195.903 93.3198Z" fill="#00BF00"/>
<path d="M183.762 76.1038L168.804 91.9894L188.887 102.421L192.694 80.4039L183.762 76.1038Z" fill="#00BF00"/>
<path d="M171.634 89.171L174.67 85.9318L190.402 93.2346L189.541 98.0382L171.634 89.171Z" fill="#80DF80"/>
<path d="M180.785 79.1156L182.363 77.659L192.63 82.0401L192.002 83.9401L180.785 79.1156Z" fill="#80DF80"/>
<path d="M167.214 81.7855L161.433 90.0211L164.684 92.8422C165.639 91.8654 167.27 90.4456 169.252 89.9574C171.73 89.3472 171.4 87.2488 171.785 84.9287C172.17 82.6086 175.254 82.4396 177.952 80.5036C176.851 78.9583 170.335 80.7143 167.214 81.7855Z" fill="white" stroke="#00004E" stroke-width="2"/>
</g>
<rect x="166.789" y="115.21" width="219.053" height="140.211" rx="9" fill="white" stroke="#00004E" stroke-width="2"/>
<rect y="22.1052" width="221.053" height="1.47368" fill="#00004E"/>
<rect x="165.789" y="128.21" width="221.053" height="1.47368" fill="#00004E"/>
<circle cx="8.47399" cy="16.579" r="2.31579" stroke="#00004E" stroke-width="2"/>
<circle cx="174.999" cy="121.947" r="2.31579" stroke="#00004E" stroke-width="2"/>
<circle cx="18.0521" cy="16.579" r="2.31579" stroke="#00004E" stroke-width="2"/>
<circle cx="184.579" cy="121.947" r="2.31579" stroke="#00004E" stroke-width="2"/>
<circle cx="27.6322" cy="16.579" r="2.31579" stroke="#00004E" stroke-width="2"/>
<circle cx="194.158" cy="121.947" r="2.31579" stroke="#00004E" stroke-width="2"/>
<path d="M243.791 123.451C244.02 122.789 243.865 122.124 243.56 121.537L242.699 119.883C239.339 121.631 238.235 126.613 238.258 130.331C235.226 128.179 230.512 126.224 227.152 127.972L228.013 129.626C228.346 130.267 228.875 130.67 229.548 130.862L240.585 134.681L243.791 123.451Z" fill="#00BF00"/>
<path d="M236.408 122.035C236.483 121.818 236.432 121.599 236.332 121.406L236.048 120.862C234.943 121.437 234.58 123.075 234.588 124.298C233.591 123.59 232.041 122.947 230.936 123.522L231.219 124.066C231.328 124.277 231.502 124.409 231.723 124.472L235.353 125.728L236.408 122.035Z" fill="#00BF00"/>
<path d="M245.534 133.747C245.73 133.36 245.691 132.938 245.553 132.552L245.163 131.465C242.954 132.256 241.858 135.222 241.56 137.506C239.88 135.93 237.151 134.334 234.941 135.126L235.331 136.213C235.482 136.634 235.772 136.926 236.17 137.101L242.624 140.371L245.534 133.747Z" fill="#00BF00"/>
<path d="M243.039 142.829C242.938 140.176 240.962 132.595 233.871 123.493" stroke="#007300" stroke-width="1.85049" stroke-linecap="round" stroke-linejoin="round"/>
<path d="M229.218 119.988C230.408 121.811 233.334 123.755 234.649 124.499C234.909 123.075 235.186 119.675 234.217 117.461C233.006 114.693 229.73 113.385 228.771 114.38C227.811 115.374 227.73 117.709 229.218 119.988Z" fill="#00BF00"/>
<path d="M242.439 155.406C251.404 198.329 285.658 204.761 302.532 201.316L306.199 180.842C254.032 185.214 252.1 160.175 249.395 155.009C247.849 155.009 244.758 155.406 242.439 155.406Z" fill="white"/>
<path d="M237.198 150.676C236.811 149.548 236.238 147.032 237.041 145.991C237.624 145.095 238.653 145.437 238.327 146.418C238.001 147.4 237.944 149.289 238.377 149.705C238.723 150.038 239.107 150.947 239.255 151.36" stroke="#00004E" stroke-width="1.85049"/>
<path d="M242.678 155.009L242.286 153.969C240.409 154.247 238.637 154.316 237.985 154.316C237.203 153.969 235.247 152.93 234.856 151.198C234.544 150.367 234.465 149.813 234.465 149.466C234.075 148.427 235.515 147.66 235.639 148.427C236.03 150.852 236.812 151.545 237.985 151.545C239.091 151.545 239.549 150.852 241.895 150.505C244.242 150.159 246.588 149.812 248.152 150.505C249.716 151.198 247.761 152.93 247.761 154.662" stroke="#00004E" stroke-width="1.85049"/>
<path d="M302.532 201.337C292.762 203.32 278.751 201.433 264.142 194.206C263.419 193.849 262.77 193.361 262.227 192.765C254.903 184.74 246.403 172.511 242.439 155.404C244.758 155.404 247.849 155.009 249.395 155.009C251.276 158.58 258.552 174.658 273.052 182.658C282.552 184.122 290.651 183.983 306.552 182.658" stroke="#00004E" stroke-width="1.85049"/>
<path d="M238.359 150.413L236.695 141.797H248.758L247.094 150.413H238.359Z" fill="#00BF00"/>
<path d="M296.619 188.633C297.358 183.846 299.353 182.79 299.656 183.255H326.554C350.14 193.848 360.724 223.287 362.841 232.629C363.445 234.638 365.018 239.801 366.469 244.381C367.074 249.806 361.329 255.531 356.793 255.531H289.966C290.873 249.504 288.756 247.395 287.244 245.285C291.478 243.879 300.549 240.886 302.968 240.163C301.033 235.823 300.604 229.917 300.632 227.506C293.44 216.053 293.439 212.248 295.107 203.7C296.048 198.878 296.014 192.55 296.619 188.633Z" fill="white"/>
<path d="M322.568 181.861C329.226 181.256 365.167 213.357 365.167 255.726L346.707 255.726" stroke="#00004E" stroke-width="1.85049"/>
<path d="M299.546 183.255C299.245 182.789 297.267 183.848 296.535 188.654C295.936 192.587 295.97 198.94 295.037 203.78C292.938 214.671 293.505 217.894 307.923 238.873" stroke="#00004E" stroke-width="1.85049"/>
<path d="M302.827 183.263C301.215 181.855 300.533 184.582 299.511 190.718C299.132 192.991 299.17 196.172 298.147 202.649C296.248 214.678 296.332 217.399 311.1 238.441" stroke="#00004E" stroke-width="1.85049"/>
<path d="M310.231 158.455C310.167 159.515 310.383 161.831 311.758 162.614C313.133 163.397 313.604 167.82 313.667 169.369" stroke="#00004E" stroke-width="1.85049"/>
<path d="M297.01 171.564C297.477 180.126 304.988 180.285 308.685 179.294C310.145 179.002 314.815 174.537 317.734 168.294C320.361 161.753 312.48 157.888 310.145 157.888C302.264 157.591 297.01 166.51 297.01 171.564Z" stroke="#00004E" stroke-width="1.85049"/>
<path d="M296.783 169.034C297.323 178.929 305.996 179.112 310.266 177.967C311.951 177.629 317.344 172.47 320.715 165.255C323.749 157.696 314.648 153.23 311.951 153.23C302.85 152.886 296.783 163.193 296.783 169.034Z" fill="white" stroke="#00004E" stroke-width="1.85049"/>
<ellipse cx="0.991969" cy="1.55289" rx="0.991969" ry="1.55289" transform="matrix(0.675579 0.737288 -0.738959 0.67375 310.295 159.158)" fill="#00004E"/>
<ellipse cx="0.827588" cy="1.29556" rx="0.827588" ry="1.29556" transform="matrix(0.675579 0.737288 -0.738959 0.67375 304.02 155.82)" fill="#00004E"/>
<path d="M277.013 251.395L288.944 248.668C291.126 248.94 290.535 253.326 289.967 255.485C287.353 255.485 281.581 255.554 279.4 255.826C278.036 256.849 273.945 257.19 272.582 256.508C272.127 256.735 271.15 257.394 270.878 258.212C270.537 258.894 269.787 260.667 269.514 262.303C267.605 262.03 268.037 258.326 268.491 256.508C268.037 257.758 266.855 260.599 265.764 261.962C264.401 263.666 265.083 257.872 265.083 256.508C266.173 249.418 273.491 250.145 277.013 251.395Z" fill="white"/>
<path d="M329.273 192.92C335.277 195.682 341.469 202.853 349.569 214.292C360.654 229.945 360.192 242.64 360.192 245.403C360.192 248.165 357.421 255.531 349.569 255.531C335.16 255.531 305.564 255.531 290.015 255.531C290.477 253.536 290.569 248.717 287.244 245.403C298.329 241.351 322.037 234.507 332.506 231.591C330.966 223.151 326.317 205.166 320.036 200.746" stroke="#00004E" stroke-width="1.85049" stroke-linecap="round"/>
<path d="M310.073 187.176C311.349 187.486 308.069 187.936 306.245 197.389C303.615 211.014 311.987 221.993 313.901 223.85C315.815 225.707 321.585 230.21 321.107 234.852" stroke="#00004E" stroke-width="1.85049"/>
<path d="M313.285 187.309C309.544 192.812 304.867 207.188 316.092 220.674C320.301 225.942 324.053 228.556 324.394 233.669" stroke="#00004E" stroke-width="1.85049"/>
<path d="M288.967 248.638L277.073 251.345C269.546 249.089 265.312 252.698 264.842 256.307C264.842 258.111 264.974 257.501 265.445 258.403" stroke="#00004E" stroke-width="1.85049"/>
<path d="M268.024 253.808C267.362 254.601 265.839 254.95 265.045 259.517C264.052 265.227 266.565 260.988 267.031 259.599C268.437 255.401 269.515 256.187 270.012 255.711" stroke="#00004E" stroke-width="1.85049"/>
<path d="M267.715 258.038C267.715 258.739 267.993 262.424 269.108 262.424C269.573 262.424 270.037 262.424 270.037 260.32C270.037 258.215 272.359 256.11 272.823 256.637C273.288 257.163 277.468 257.163 278.861 256.11C280.719 255.69 285.672 255.409 289.543 255.584" stroke="#00004E" stroke-width="1.85049"/>
<path d="M299.658 178.77C295.974 175.597 296.691 173.853 297.203 171.412C300.579 183.31 310.627 175.004 312.555 172.669C322.38 160.772 314.704 155.281 312.555 154.061C311.489 153.455 308.282 152.84 305.826 154.061C312.555 147.398 322.229 154.061 323.668 156.292C324.708 157.905 325.766 159.584 326.372 161.992C327.696 167.262 325.433 169.024 324.819 169.634C324.205 170.244 323.668 176.452 325.143 180.6C327.711 187.816 318.388 188.227 316.546 187.922C314.705 187.617 314.09 186.396 308.256 187.617C302.423 188.837 299.658 184.871 297.203 181.516C297.305 180.804 297.939 179.258 299.658 178.77Z" fill="#00004E" stroke="#00004E" stroke-width="1.85049"/>
<path d="M300.479 167.871C300.07 166.44 303.652 163.499 304.946 162.613L302.728 168.775C302.046 168.97 300.451 168.542 300.479 167.871Z" fill="white"/>
<path d="M306.289 159.158C304.817 160.166 301.02 162.047 301.485 163.674C301.452 164.437 303.267 164.924 304.042 164.702" stroke="#00004E" stroke-width="1.85049" stroke-linecap="round"/>
<defs>
<clipPath id="clip0_816_29318">
<rect width="217.368" height="149.579" fill="white" transform="translate(1.47461)"/>
</clipPath>
</defs>
</svg>
