<svg width="27" height="42" viewBox="0 0 27 42" fill="none" xmlns="http://www.w3.org/2000/svg">
<path d="M15.47 34.6506C14.7869 34.8227 14.303 35.555 14.4664 36.2642C14.5061 36.3975 14.554 36.5284 14.61 36.6559C14.5812 36.669 14.5512 36.6792 14.5202 36.6863C14.119 36.6863 13.7177 36.6819 13.3164 36.6863C13.1998 36.6863 13.1773 36.6183 13.1773 36.5286C13.1719 36.3052 13.1881 36.0894 13.1719 35.8571C13.1558 35.625 13.1396 35.3892 12.9484 35.2099C12.3927 34.69 11.7365 34.6275 11.0462 34.7796C10.4646 34.9079 9.99594 35.2538 9.60098 35.6959C9.45555 35.8581 9.3155 36.024 9.13599 36.2282V34.941C8.95015 34.9697 8.79036 34.9905 8.63239 35.0217C8.58871 35.0291 8.54961 35.053 8.52344 35.0887C8.49729 35.1245 8.48611 35.1689 8.49234 35.2128C8.49234 35.5606 8.48427 35.9073 8.47889 36.255C8.47889 36.4658 8.36397 36.6243 8.15482 36.6451C7.86937 36.6745 7.5794 36.6656 7.29305 36.6872C7.11352 36.7005 7.07131 36.6325 7.07131 36.4658C7.07917 36.1746 7.05538 35.8833 7.00039 35.5971C6.91957 35.2922 6.7223 35.0307 6.4508 34.869C6.17933 34.7074 5.85524 34.6582 5.54798 34.7323V34.967C5.95552 34.9187 6.2661 35.0235 6.37474 35.5167C6.45101 35.8581 6.40166 36.2274 6.40166 36.5859C6.40166 36.6138 6.29662 36.6648 6.23919 36.6648C5.77868 36.6711 5.31905 36.6711 4.85855 36.6711C4.80109 36.6711 4.70864 36.6898 4.69159 36.7266C4.63236 36.8759 4.58114 37.028 4.53809 37.1829H4.78046C7.29395 37.1881 9.80745 37.1881 12.3209 37.1829C12.4861 37.1829 12.5462 37.217 12.5418 37.3963C12.5346 37.855 12.5418 38.315 12.5418 38.7747C12.5418 38.8241 12.5328 38.8733 12.5229 38.971C12.4072 38.8377 12.2629 38.7324 12.1009 38.6622C11.9388 38.592 11.7631 38.5591 11.5866 38.566C11.2392 38.5749 10.899 38.6798 10.6593 38.9657C10.2626 39.4399 10.2778 40.1641 10.6091 40.6346C10.6881 40.7526 10.7904 40.853 10.9097 40.9303C11.029 41.0073 11.1629 41.0591 11.303 41.0827C11.7518 41.1545 12.1567 41.0183 12.5247 40.6993C12.5355 40.8354 12.5436 40.9321 12.5516 41.0336H13.0849C13.0849 40.9716 13.0947 40.9276 13.0947 40.8819C13.1061 39.7425 13.1199 38.6054 13.136 37.4707C13.136 37.1621 13.1055 37.1918 13.4269 37.1918C13.9879 37.1866 14.549 37.2034 15.1091 37.1866C15.4795 37.1781 15.8488 37.1432 16.2142 37.0817C16.5777 37.0207 16.9449 36.7508 16.9619 36.2747C16.9808 35.7585 16.9979 35.2459 17.0167 34.7082C16.5086 34.5736 16.0086 34.5189 15.47 34.6506ZM11.7383 40.648H11.7258C11.6197 40.6462 11.515 40.6233 11.4177 40.581C11.3205 40.5384 11.2325 40.4774 11.1589 40.4012C11.0853 40.3247 11.0275 40.2348 10.9887 40.136C10.95 40.0374 10.9311 39.932 10.9331 39.8261C10.9331 39.8077 10.9331 39.7887 10.9331 39.7696C10.9368 39.6676 10.9607 39.5669 11.0033 39.4739C11.0459 39.3808 11.1064 39.2972 11.1815 39.2276C11.2565 39.1579 11.3445 39.1035 11.4405 39.0678C11.5365 39.0323 11.6387 39.0157 11.7411 39.0194C12.1531 39.0194 12.5858 39.3779 12.5364 39.8153C12.583 40.2645 12.1836 40.6535 11.7383 40.648ZM12.5462 36.5321C12.5462 36.6217 12.5193 36.6764 12.4161 36.6764H9.54981C9.5143 36.6685 9.4795 36.6577 9.44567 36.644C9.52707 36.4958 9.61917 36.3533 9.72127 36.2185C10.0534 35.8358 10.4116 35.471 10.8972 35.2917C11.1159 35.2052 11.3507 35.1674 11.5855 35.1802C11.8203 35.1934 12.0494 35.257 12.2572 35.3668C12.4529 35.471 12.5265 35.6618 12.5427 35.8786C12.5588 36.0955 12.5427 36.3152 12.5427 36.5331L12.5462 36.5321ZM15.5086 36.6488C15.4185 36.6306 15.3354 36.5873 15.2691 36.5239C15.2028 36.4603 15.156 36.3793 15.1343 36.29C15.0445 35.9675 15.0445 35.6376 15.2123 35.3337C15.2666 35.2254 15.3501 35.1345 15.4533 35.0711C15.5566 35.0078 15.6755 34.9747 15.7967 34.9752H16.3147C16.3488 35.3025 16.3946 35.6026 16.4045 35.9146C16.4233 36.4416 16.0131 36.7634 15.5023 36.6496L15.5086 36.6488Z" fill="white"/>
<path d="M11.5386 41.1574C11.4569 41.1571 11.3752 41.1506 11.2945 41.1377C11.147 41.1125 11.0062 41.0575 10.8806 40.9766C10.755 40.8954 10.6472 40.7894 10.5638 40.6654C10.2002 40.1483 10.2226 39.4024 10.6176 38.9311C10.842 38.6622 11.1679 38.5223 11.5853 38.5106C11.7499 38.5045 11.9141 38.5313 12.0682 38.5894C12.2224 38.6472 12.3634 38.7355 12.483 38.8485C12.483 38.8188 12.4875 38.7965 12.4875 38.7749C12.4875 38.6217 12.4875 38.4685 12.4875 38.3152C12.4875 38.014 12.4875 37.702 12.4875 37.3955C12.4949 37.3508 12.486 37.3051 12.4623 37.2665C12.4435 37.2467 12.4013 37.2386 12.3223 37.2386C9.82049 37.2441 7.28363 37.2441 4.78181 37.2386H4.46582L4.48559 37.1679C4.52903 37.0107 4.58087 36.8562 4.64088 36.7045C4.68217 36.6149 4.85722 36.6149 4.85901 36.6149C5.30785 36.6149 5.77914 36.6149 6.23874 36.6086C6.27756 36.6041 6.31479 36.5907 6.34737 36.5691C6.34737 36.4724 6.34737 36.3754 6.35454 36.2779C6.37518 36.0274 6.364 35.7753 6.32132 35.5274C6.23156 35.1198 6.00085 34.9684 5.55473 35.0212L5.49277 35.0283V34.6887L5.53585 34.6779C5.85773 34.6012 6.19683 34.653 6.48111 34.822C6.7654 34.991 6.97247 35.2641 7.05832 35.5832C7.11467 35.8744 7.13904 36.1712 7.13102 36.4679C7.13102 36.5431 7.1418 36.5888 7.16514 36.6104C7.20362 36.6335 7.24944 36.6417 7.29351 36.6328C7.42189 36.623 7.55116 36.6193 7.67682 36.6156C7.8339 36.6112 7.99639 36.6067 8.1544 36.5907C8.31237 36.5744 8.42368 36.4508 8.42908 36.2545L8.43357 35.973C8.43357 35.7238 8.44253 35.4667 8.44165 35.2131C8.43491 35.1558 8.4506 35.0985 8.48542 35.0525C8.52023 35.0068 8.57148 34.9763 8.62836 34.9673C8.74147 34.945 8.85817 34.9279 8.98205 34.9092L9.13285 34.8866L9.19569 34.8769V36.0816L9.30612 35.9543C9.39589 35.8502 9.47936 35.7543 9.56463 35.6594C10.0207 35.1492 10.5027 34.8446 11.0395 34.7263C11.8474 34.547 12.4821 34.6939 12.9911 35.17C13.1975 35.3634 13.2155 35.6126 13.2317 35.8529C13.2415 35.9956 13.2397 36.1318 13.2379 36.2634C13.2379 36.3531 13.2379 36.4427 13.2379 36.5278C13.2331 36.5591 13.2402 36.5912 13.2577 36.6175C13.2765 36.6298 13.299 36.6356 13.3214 36.6338C13.5907 36.6338 13.86 36.6338 14.1239 36.6338H14.5189L14.5414 36.6283C14.4945 36.5152 14.4535 36.3996 14.4184 36.2823C14.3426 35.9217 14.4086 35.5459 14.6028 35.2328C14.797 34.9195 15.1045 34.6929 15.4615 34.5998C15.9498 34.4805 16.4346 34.4986 17.0333 34.6582L17.0755 34.669L17.0549 35.2738C17.0432 35.6126 17.0315 35.9454 17.0189 36.2797C17.001 36.7841 16.6078 37.0746 16.2254 37.1392C15.8567 37.1997 15.4841 37.2341 15.1105 37.2422C14.773 37.2523 14.4283 37.2504 14.0952 37.2475C13.8735 37.2475 13.6509 37.2475 13.4282 37.2475H13.3501C13.3003 37.2431 13.2501 37.2459 13.2011 37.2567C13.1915 37.3011 13.1885 37.3466 13.1921 37.3918V37.4725C13.176 38.608 13.1622 39.7451 13.1508 40.884C13.1508 40.9119 13.1508 40.9405 13.1455 40.9737C13.1401 41.0068 13.1455 41.0149 13.1401 41.0391V41.0912H12.5036L12.4812 40.8115C12.2164 41.032 11.8834 41.1542 11.5386 41.1574ZM11.6329 38.6209H11.5889C11.2038 38.6317 10.9049 38.7589 10.702 39.0018C10.5243 39.2289 10.4239 39.5067 10.4153 39.7948C10.4067 40.0829 10.4905 40.3662 10.6544 40.6036C10.7297 40.715 10.8268 40.8102 10.9399 40.8833C11.053 40.9563 11.1797 41.0057 11.3124 41.0283C11.7379 41.0964 12.1203 40.9747 12.4893 40.6582L12.5718 40.5865L12.6033 40.9781H13.0342V40.9629C13.0342 40.9342 13.0342 40.9082 13.0342 40.8822C13.0467 39.7427 13.0605 38.6054 13.0755 37.4699C13.0755 37.4413 13.0755 37.4144 13.0755 37.391C13.0755 37.2799 13.0755 37.2189 13.1176 37.1768C13.1598 37.1348 13.2209 37.1355 13.3447 37.1366H13.4318C13.6545 37.1366 13.8807 37.1366 14.1006 37.1366C14.4327 37.1366 14.7756 37.141 15.1123 37.1311C15.4794 37.1222 15.8454 37.0872 16.2075 37.0262C16.5207 36.9742 16.8924 36.7447 16.9095 36.2723C16.9211 35.938 16.9328 35.6055 16.9445 35.2659L16.9624 34.7497C16.4023 34.6062 15.9462 34.5917 15.4884 34.704C14.8205 34.8714 14.3708 35.5948 14.5252 36.2508C14.5637 36.3809 14.6105 36.5087 14.6652 36.6328L14.6868 36.6822L14.6383 36.7053C14.6058 36.7203 14.5718 36.7318 14.5369 36.7394H14.5252H14.1239C13.8547 36.7394 13.5853 36.7394 13.3223 36.7394C13.2964 36.7415 13.2703 36.7384 13.2457 36.73C13.2211 36.7213 13.1986 36.7079 13.1796 36.69C13.1603 36.6677 13.1456 36.6417 13.1365 36.6135C13.1274 36.5851 13.1241 36.5557 13.1266 36.526C13.1266 36.4364 13.1266 36.3467 13.1266 36.2571C13.1266 36.1273 13.1266 35.9927 13.1212 35.8558C13.1051 35.6263 13.0898 35.4076 12.9148 35.2452C12.4345 34.797 11.8286 34.6598 11.062 34.8285C10.5485 34.9413 10.0862 35.2354 9.64632 35.7248C9.56195 35.8145 9.47847 35.9149 9.38871 36.0187L9.18135 36.2571L9.08438 36.3665V35.006L8.99462 35.0186C8.87252 35.0365 8.75673 35.0535 8.64453 35.0759C8.61485 35.0806 8.58828 35.0969 8.57036 35.1208C8.55243 35.145 8.54457 35.1752 8.54845 35.2049C8.54845 35.4675 8.54845 35.7256 8.54039 35.9748L8.53589 36.2563C8.53589 36.5081 8.38778 36.6777 8.16157 36.7C8 36.7171 7.83572 36.7216 7.67593 36.726C7.55205 36.726 7.42368 36.7331 7.2989 36.7421C7.26197 36.7492 7.22396 36.7484 7.18741 36.7397C7.15084 36.7308 7.11662 36.7142 7.08705 36.6911C7.0606 36.6603 7.04076 36.6246 7.02872 36.5857C7.01669 36.547 7.01269 36.5063 7.01702 36.4661C7.02512 36.1785 7.00194 35.891 6.9479 35.6081C6.87044 35.3253 6.68844 35.0822 6.43858 34.9279C6.18871 34.7734 5.88959 34.7195 5.60141 34.7765V34.9063C5.90842 34.8803 6.29889 34.9342 6.42636 35.5051C6.47161 35.7619 6.48368 36.0234 6.46226 36.2831C6.46226 36.3846 6.45419 36.4858 6.45419 36.5862C6.45419 36.6669 6.29979 36.7197 6.23694 36.7197C5.77644 36.7268 5.30875 36.7268 4.85631 36.7268C4.81488 36.7255 4.77377 36.7347 4.73692 36.7536C4.69116 36.873 4.64716 37.0002 4.60947 37.1277H4.77822C7.28006 37.1337 9.81688 37.1337 12.3187 37.1277C12.3575 37.1224 12.3969 37.1253 12.4346 37.1361C12.4722 37.1466 12.5073 37.1647 12.5378 37.1894C12.561 37.2184 12.5781 37.252 12.588 37.288C12.5979 37.3237 12.6003 37.3613 12.5952 37.3981C12.5898 37.703 12.5952 38.014 12.5952 38.3152C12.5952 38.4685 12.5952 38.6217 12.5952 38.7749C12.5941 38.8141 12.5908 38.853 12.5853 38.8916C12.5853 38.9159 12.5791 38.9434 12.5755 38.9813L12.5629 39.1085L12.4794 39.0118C12.3751 38.89 12.2458 38.7923 12.1004 38.725C11.955 38.6575 11.7968 38.622 11.6365 38.6209H11.6329ZM11.7469 40.7048H11.7262C11.613 40.7027 11.5013 40.6785 11.3974 40.633C11.2936 40.5878 11.1998 40.5226 11.1212 40.4411C11.0427 40.3597 10.981 40.2635 10.9397 40.158C10.8984 40.0529 10.8784 39.9404 10.8806 39.8274C10.8806 39.8103 10.8806 39.7898 10.8806 39.7698C10.884 39.6602 10.9091 39.5521 10.9544 39.452C10.9997 39.3522 11.0644 39.262 11.1448 39.1871C11.2251 39.1119 11.3195 39.0536 11.4225 39.0152C11.5256 38.9768 11.6352 38.9592 11.7451 38.9631C11.8694 38.9663 11.9918 38.9947 12.1048 39.0467C12.2178 39.0988 12.319 39.1732 12.4022 39.2654C12.4705 39.3385 12.5227 39.425 12.5554 39.5196C12.5882 39.614 12.6008 39.7144 12.5925 39.814C12.6017 39.9236 12.5874 40.0342 12.5507 40.1383C12.5141 40.2422 12.4558 40.3373 12.3798 40.4172C12.2999 40.5061 12.2024 40.5776 12.0935 40.6269C11.9846 40.6766 11.8665 40.7032 11.7469 40.7048ZM11.7173 39.0754C11.5294 39.0751 11.3488 39.1477 11.2133 39.2778C11.0779 39.4079 10.9983 39.5853 10.9911 39.7727V39.8255C10.9888 39.9244 11.0061 40.023 11.0421 40.1152C11.078 40.2074 11.1319 40.2916 11.2005 40.363C11.2692 40.4343 11.3513 40.4914 11.4421 40.531C11.533 40.5707 11.6307 40.592 11.7298 40.5936H11.7397C11.8456 40.5944 11.9506 40.5728 12.0474 40.53C12.1443 40.4872 12.231 40.4243 12.3017 40.3454C12.3668 40.2758 12.4165 40.193 12.4474 40.1029C12.4784 40.0127 12.4899 39.917 12.4812 39.8218V39.8103C12.4891 39.7251 12.4787 39.6392 12.4507 39.5582C12.4227 39.4775 12.3777 39.4037 12.3187 39.3414C12.2462 39.2596 12.1576 39.1937 12.0585 39.1474C11.9593 39.1011 11.8518 39.0757 11.7424 39.0725H11.7137L11.7173 39.0754ZM12.413 36.7331H9.54039C9.50168 36.725 9.46382 36.7134 9.42729 36.6982L9.36983 36.6748L9.39945 36.6201C9.48236 36.4698 9.57596 36.3252 9.67955 36.1883C9.99105 35.8298 10.3636 35.4334 10.8806 35.2425C11.1066 35.1534 11.3492 35.1145 11.5917 35.1282C11.8343 35.1416 12.071 35.2076 12.2855 35.3214C12.4785 35.4237 12.5844 35.6118 12.5997 35.8781C12.6087 36.025 12.606 36.1738 12.5997 36.3181C12.5997 36.3907 12.5997 36.4624 12.5997 36.5349C12.6042 36.5899 12.5868 36.6443 12.5512 36.6866C12.5326 36.7034 12.5107 36.716 12.4869 36.7242C12.4631 36.7321 12.438 36.7352 12.413 36.7331ZM9.55656 36.6219H12.413C12.4335 36.6241 12.4541 36.619 12.4713 36.6078C12.4857 36.586 12.4915 36.5599 12.4875 36.5342C12.4875 36.4616 12.4875 36.388 12.4875 36.3155C12.4875 36.173 12.4929 36.0258 12.4875 35.8844C12.474 35.6549 12.3896 35.5025 12.2307 35.4173C12.0301 35.3111 11.8088 35.2496 11.5821 35.2372C11.3553 35.2246 11.1286 35.2614 10.9174 35.3448C10.4237 35.524 10.0629 35.9112 9.76213 36.2563C9.67626 36.3709 9.59743 36.4908 9.52604 36.6149L9.55656 36.6219ZM15.7021 36.7279C15.6311 36.7276 15.5603 36.7195 15.4911 36.7037C15.3912 36.6827 15.2992 36.6343 15.2255 36.5639C15.1519 36.4934 15.0996 36.4035 15.0746 36.3047C14.9696 35.9283 14.9983 35.5877 15.1581 35.308C15.2162 35.1913 15.3058 35.0932 15.4169 35.0249C15.5279 34.9563 15.656 34.9203 15.7865 34.9208H16.3583V34.971C16.3681 35.0659 16.3798 35.1592 16.3906 35.2507C16.4166 35.4783 16.4417 35.6933 16.4498 35.9138C16.4613 36.0182 16.4502 36.1238 16.4173 36.2237C16.3844 36.3236 16.3304 36.4151 16.259 36.4922C16.1876 36.5694 16.1005 36.6303 16.0034 36.6708C15.9064 36.7116 15.8018 36.731 15.6967 36.7279H15.7021ZM15.7918 35.0309C15.6814 35.0304 15.573 35.0609 15.479 35.119C15.3851 35.1771 15.3093 35.2601 15.2604 35.359C15.1114 35.6234 15.088 35.9228 15.1859 36.2761C15.2055 36.3552 15.247 36.4272 15.3058 36.4837C15.3645 36.5405 15.4381 36.5793 15.518 36.5959C15.6223 36.6246 15.7319 36.6283 15.8379 36.607C15.9439 36.5857 16.0434 36.5399 16.1285 36.4732C16.2061 36.4043 16.2666 36.3184 16.3049 36.2219C16.3433 36.1257 16.3585 36.0216 16.3493 35.9183C16.3403 35.7023 16.3161 35.4891 16.2892 35.263C16.2802 35.1871 16.2712 35.1098 16.2631 35.0309H15.7918Z" fill="white"/>
<path d="M2.939 38.6018C2.79825 38.6315 2.66496 38.6893 2.54712 38.7718C2.42929 38.8541 2.3293 38.9595 2.25318 39.0812C2.10328 38.6798 1.79356 38.5489 1.43449 38.5749C1.26306 38.5815 1.0962 38.632 0.949873 38.7214C0.803547 38.811 0.682665 38.9364 0.598763 39.086L0.553867 39.0526C0.543116 38.928 0.531443 38.8045 0.520666 38.6761H0.0556641V41.0478H0.594267C0.594267 40.6617 0.594267 40.2895 0.594267 39.9221C0.591614 39.6897 0.669651 39.4637 0.815111 39.282C0.943462 39.1027 1.25675 38.9889 1.44348 39.0841C1.6302 39.179 1.67686 39.353 1.67686 39.5591C1.6715 39.9473 1.67686 40.3353 1.67686 40.7243V41.0371H2.22805V39.9715C2.22304 39.8169 2.25445 39.6634 2.31978 39.5233C2.38513 39.3832 2.48254 39.2602 2.60416 39.1648C2.67382 39.1098 2.75667 39.0744 2.84443 39.0615C2.9322 39.0489 3.02178 39.0594 3.10418 39.092C3.26486 39.1485 3.31425 39.3117 3.31425 39.4847V40.8292C3.31425 40.8972 3.32142 40.9664 3.32592 41.0426H3.85374C3.8647 41.0205 3.87227 40.9969 3.87619 40.9727C3.87619 40.3892 3.90492 39.8075 3.8708 39.2239C3.84386 38.7576 3.38785 38.4969 2.939 38.6018Z" fill="white"/>
<path d="M0.64992 41.1039H0V38.621H0.571827V38.672L0.590672 38.8871L0.598742 38.9767C0.692499 38.8421 0.816275 38.7306 0.96034 38.6518C1.10444 38.5727 1.26488 38.5283 1.4291 38.5214C1.81778 38.4928 2.10505 38.6471 2.26126 38.9696C2.42575 38.7538 2.66247 38.6042 2.92821 38.5483C3.04993 38.5188 3.17657 38.5159 3.29953 38.5396C3.42252 38.5632 3.53896 38.6129 3.64097 38.6855C3.72561 38.7483 3.79516 38.8292 3.84453 38.9223C3.89391 39.0153 3.92191 39.1181 3.92643 39.2232C3.95066 39.6364 3.94438 40.0578 3.9381 40.4657C3.9381 40.635 3.93271 40.8053 3.93182 40.9749C3.92795 41.0074 3.91854 41.0393 3.90401 41.0689L3.88873 41.1002H3.27383V41.0482C3.27383 41.024 3.27383 41.0017 3.26844 40.9794C3.26844 40.9281 3.26126 40.8797 3.26126 40.8313V39.4832C3.26126 39.2976 3.2038 39.183 3.08891 39.1425C3.01505 39.1131 2.93473 39.1034 2.85598 39.1144C2.7772 39.1257 2.70274 39.1573 2.64007 39.2061C2.52492 39.2966 2.43248 39.4125 2.37015 39.5447C2.30781 39.6769 2.27729 39.822 2.28099 39.9682V41.0966H1.62119V40.7283C1.62119 40.5982 1.62119 40.4691 1.62119 40.3393C1.62119 40.0846 1.62119 39.8212 1.62119 39.562C1.62119 39.3371 1.56106 39.2098 1.41833 39.1373C1.25315 39.0529 0.96949 39.1686 0.859959 39.3165C0.721626 39.4885 0.647367 39.7029 0.64992 39.9235C0.64992 40.1679 0.64992 40.4137 0.64992 40.6648C0.64992 40.7919 0.64992 40.9202 0.64992 41.05V41.1039ZM0.11132 40.9927H0.539497C0.539497 40.8816 0.539497 40.7722 0.539497 40.6629C0.539497 40.4119 0.539497 40.1663 0.539497 39.9235C0.536894 39.6782 0.619352 39.4398 0.772905 39.2485C0.908457 39.0618 1.25045 38.9231 1.46951 39.0351C1.70557 39.1552 1.73251 39.3935 1.73251 39.5594C1.73251 39.8186 1.73251 40.0812 1.73251 40.3356C1.73251 40.4647 1.73251 40.5948 1.73251 40.7247V40.9819H2.17418V39.9718C2.16939 39.8097 2.20262 39.6485 2.27119 39.5016C2.33977 39.3544 2.44181 39.2253 2.56915 39.1247C2.64646 39.0639 2.73838 39.0245 2.83574 39.0103C2.9331 38.9961 3.03245 39.0077 3.12392 39.044C3.23432 39.0826 3.36898 39.192 3.36898 39.4877V40.8321C3.36898 40.8779 3.36898 40.9218 3.37526 40.972V40.9909H3.81332C3.81598 40.983 3.81779 40.9749 3.81871 40.9667C3.81871 40.8053 3.81871 40.635 3.8241 40.4647C3.83038 40.0586 3.83666 39.6401 3.81332 39.2306C3.8092 39.1418 3.78531 39.0548 3.74338 38.9764C3.70145 38.8979 3.64255 38.8297 3.57095 38.7769C3.48187 38.7138 3.38018 38.6705 3.27283 38.65C3.16548 38.6297 3.05498 38.6326 2.94887 38.6586C2.81602 38.6873 2.69023 38.742 2.57878 38.8198C2.46736 38.8976 2.37255 38.9967 2.29984 39.1113L2.24059 39.2009L2.20109 39.096C2.07453 38.7564 1.81688 38.5984 1.43807 38.6255C1.27597 38.6321 1.11826 38.6799 0.979872 38.7646C0.841486 38.8492 0.726984 38.9675 0.647213 39.1086L0.616693 39.1633L0.50091 39.0737L0.484747 38.8881C0.479357 38.8334 0.474867 38.7788 0.470369 38.7231H0.11132V40.9927Z" fill="white"/>
<path d="M6.74716 38.6852C6.73727 38.79 6.7292 38.8797 6.71753 39.0008C6.67525 38.9735 6.63476 38.9436 6.59633 38.9112C6.38579 38.6996 6.10063 38.5792 5.80206 38.5753C5.50348 38.5713 5.21533 38.6846 4.99938 38.8905C4.56848 39.2984 4.5254 39.8047 4.67441 40.3424C4.84317 40.953 5.51015 41.2174 6.06401 41.0597C6.28305 40.9988 6.47784 40.8634 6.69238 40.7574C6.69958 40.8374 6.70855 40.9423 6.71753 41.0453H7.24175V38.6852H6.74716ZM5.9527 40.6571C5.57567 40.6778 5.15466 40.2512 5.16273 39.8362C5.17083 39.388 5.55322 39.0169 5.93924 39.0295C6.4222 39.0447 6.70315 39.326 6.70315 39.8317C6.70315 40.3792 6.45361 40.6266 5.9527 40.6544V40.6571Z" fill="white"/>
<path d="M5.7388 41.1601C5.52671 41.1604 5.31804 41.1065 5.13288 41.0032C5.00832 40.9357 4.89882 40.8434 4.811 40.7325C4.72321 40.6213 4.65894 40.4935 4.62209 40.3568C4.44257 39.7294 4.55835 39.2329 4.96232 38.8502C5.18811 38.6328 5.49067 38.5135 5.8042 38.5177C6.11773 38.5222 6.41684 38.6499 6.63648 38.8733L6.67239 38.9012L6.69751 38.6323H7.29358V41.1026H6.66522L6.64277 40.8462C6.60058 40.8686 6.55928 40.8912 6.51888 40.9144C6.37968 40.9982 6.23114 41.0658 6.07633 41.1151C5.96648 41.1459 5.85286 41.1609 5.7388 41.1601ZM5.79448 38.6278C5.51264 38.6284 5.24178 38.7366 5.0377 38.9309C4.66609 39.2821 4.56555 39.7376 4.72802 40.3282C4.76158 40.4504 4.81951 40.5648 4.89832 40.6644C4.97714 40.7637 5.07522 40.8465 5.18674 40.9072C5.45032 41.0513 5.75985 41.087 6.04941 41.0066C6.19584 40.9593 6.33622 40.8949 6.46771 40.815C6.53416 40.7782 6.60058 40.7414 6.66881 40.7083L6.74062 40.6723L6.76844 40.9898H7.18675V38.7398H6.80076L6.76754 39.0983L6.69124 39.0492C6.64671 39.0205 6.60413 38.9892 6.56378 38.9551C6.46461 38.851 6.34522 38.7685 6.21293 38.7122C6.08067 38.656 5.93825 38.6273 5.79448 38.6278ZM5.92732 40.7101C5.72681 40.7004 5.53762 40.6144 5.39859 40.4699C5.30773 40.3905 5.23482 40.293 5.18469 40.1834C5.13457 40.074 5.10839 39.955 5.10787 39.8346C5.10736 39.7142 5.13254 39.5951 5.18176 39.4852C5.23093 39.3751 5.30303 39.2771 5.39321 39.1969C5.46505 39.1249 5.55058 39.0681 5.64475 39.0295C5.73893 38.9908 5.83987 38.9711 5.94167 38.9719C6.46142 38.9882 6.75947 39.3002 6.75947 39.8291C6.75947 40.3918 6.49644 40.6797 5.95155 40.7091H5.92282L5.92732 40.7101ZM5.92104 39.0815C5.75216 39.0881 5.59195 39.1577 5.4722 39.2768C5.39581 39.3485 5.33444 39.4351 5.29159 39.5307C5.24878 39.6264 5.22533 39.7294 5.22264 39.8343C5.22556 39.9394 5.24971 40.043 5.2937 40.1387C5.33764 40.2344 5.40049 40.32 5.47848 40.391C5.53972 40.4557 5.6134 40.5077 5.69512 40.5435C5.77686 40.5795 5.86497 40.5987 5.95426 40.5997C6.4372 40.5729 6.65175 40.3353 6.65175 39.8291C6.65175 39.362 6.39949 39.0965 5.94167 39.0815H5.92104Z" fill="white"/>
<path d="M9.5285 39.7976C9.305 39.6864 9.0707 39.5968 8.84 39.5019C8.70534 39.4462 8.61379 39.3521 8.65059 39.2059C8.66416 39.1355 8.704 39.0724 8.76208 39.0298C8.82021 38.9872 8.89228 38.9683 8.96388 38.9764C9.17079 39.0112 9.37574 39.0566 9.5779 39.1129C9.61559 39.0527 9.67393 38.9604 9.74575 38.844C9.66419 38.7846 9.57734 38.733 9.48631 38.6897C9.20923 38.5874 8.90763 38.5709 8.62097 38.6421C8.48714 38.6694 8.36501 38.7373 8.27119 38.8366C8.17738 38.9357 8.11646 39.0611 8.09672 39.1962C8.04375 39.49 8.13084 39.718 8.46386 39.9017C8.64341 39.9984 8.84089 40.0405 9.02043 40.1356C9.12469 40.1871 9.20528 40.2768 9.24576 40.3856C9.29152 40.6098 9.01057 40.797 8.7592 40.7154C8.56979 40.6571 8.38937 40.563 8.18649 40.4778L7.99707 40.7325C8.16674 40.9583 8.39565 41.0293 8.63083 41.0792C8.97466 41.1528 9.54646 41.0587 9.726 40.6768C9.8409 40.425 9.86514 39.9653 9.5285 39.7976Z" fill="white"/>
<path d="M8.86582 41.1572C8.78291 41.1577 8.70019 41.1496 8.61894 41.133C8.39452 41.0857 8.13869 41.0129 7.95286 40.7655L7.92773 40.7324L8.16742 40.4107L8.20782 40.4267C8.27335 40.4546 8.33709 40.4832 8.39991 40.5111C8.52169 40.5692 8.64702 40.6199 8.77515 40.6625C8.83319 40.6809 8.89497 40.684 8.95465 40.672C9.01432 40.6599 9.06994 40.6328 9.11625 40.5934C9.14533 40.5702 9.16764 40.5397 9.18089 40.505C9.19413 40.4703 9.19786 40.4328 9.19167 40.3962C9.15466 40.3042 9.085 40.2288 8.99597 40.1846C8.90884 40.1415 8.81887 40.1044 8.72665 40.0737C8.62597 40.0403 8.5281 39.9988 8.43402 39.9499C8.10368 39.7706 7.97891 39.5252 8.03994 39.1863C8.06153 39.0405 8.12758 38.9048 8.22909 38.7978C8.3306 38.6909 8.46266 38.6178 8.60727 38.5884C8.90459 38.5134 9.21769 38.5305 9.50496 38.6378C9.59961 38.683 9.68976 38.7369 9.77427 38.7989L9.81556 38.8294L9.78861 38.8725C9.72758 38.9719 9.67641 39.0517 9.63961 39.1128L9.59922 39.1771L9.55972 39.1656C9.35928 39.1104 9.15612 39.0654 8.95108 39.0312C8.89368 39.0252 8.83608 39.0409 8.78972 39.0752C8.74335 39.1096 8.71157 39.1601 8.70064 39.2166C8.69076 39.257 8.66205 39.3701 8.85774 39.4505L9.00136 39.5088C9.18089 39.5832 9.3703 39.6594 9.54895 39.7483C9.91878 39.932 9.90084 40.4249 9.77248 40.7001C9.61898 41.0336 9.20515 41.1572 8.86582 41.1572ZM8.06599 40.7316C8.22667 40.9232 8.43853 40.9816 8.64228 41.0255C8.96906 41.0954 9.51035 41.005 9.67551 40.6535C9.79043 40.4078 9.79401 39.9912 9.50406 39.8469C9.32454 39.7573 9.14498 39.6847 8.96546 39.6111L8.82184 39.5527C8.64228 39.4776 8.5597 39.3493 8.5992 39.1942C8.61658 39.1109 8.66452 39.0373 8.73363 38.9874C8.80275 38.9377 8.888 38.9156 8.97263 38.9253C9.16885 38.9579 9.36328 39.0005 9.55524 39.0525C9.58664 39.0034 9.62705 38.9387 9.67373 38.8625C9.60751 38.8176 9.53789 38.7776 9.46548 38.7434C9.20005 38.6457 8.9112 38.6304 8.6369 38.6995C8.51378 38.7242 8.40131 38.7863 8.31486 38.8772C8.22841 38.9682 8.17221 39.0835 8.15396 39.2076C8.10101 39.5025 8.20244 39.6963 8.49328 39.8566C8.58231 39.9029 8.67474 39.942 8.76976 39.9741C8.86555 40.0061 8.95885 40.0451 9.04894 40.0905C9.16537 40.1484 9.25528 40.2485 9.3003 40.3702C9.312 40.4267 9.30814 40.4853 9.28918 40.5397C9.2702 40.5942 9.23681 40.6425 9.19256 40.6796C9.13184 40.7319 9.05861 40.7677 8.97997 40.7834C8.90132 40.7989 8.81995 40.7942 8.74371 40.7692C8.61124 40.7258 8.48171 40.6741 8.35594 40.6141L8.20692 40.5476L8.06599 40.7316Z" fill="white"/>
<path d="M2.55901 38.4431C2.72138 38.3966 2.87961 38.3366 3.03209 38.2639C3.21398 38.1834 3.37603 38.0638 3.5069 37.9143C3.63776 37.7644 3.73429 37.5881 3.78975 37.3972C3.89836 37.0298 3.87951 36.655 3.87951 36.2812V34.8694C3.87951 34.8013 3.90104 34.6902 3.77716 34.7117C3.54916 34.7477 3.32834 34.8013 3.08595 34.8463C3.13623 35.152 3.20894 35.4198 3.21792 35.6924C3.23766 36.2034 3.23498 36.7159 3.21792 37.2269C3.20983 37.485 3.14701 37.7431 2.92708 37.9153C2.74125 38.057 2.54107 38.1842 2.3418 38.3259C2.39026 38.4773 2.40194 38.4907 2.55901 38.4431Z" fill="white"/>
<path d="M2.44335 38.5214C2.35987 38.5214 2.33025 38.4667 2.28985 38.3421L2.27637 38.3037L2.31048 38.2804L2.49003 38.1531C2.63005 38.058 2.75932 37.9676 2.88948 37.8706C3.06275 37.7345 3.14892 37.5291 3.1588 37.2245C3.17675 36.6722 3.17675 36.1721 3.1588 35.6934C3.14684 35.5057 3.12013 35.3194 3.0789 35.1359C3.06094 35.0463 3.04299 34.9514 3.02682 34.8544L3.01875 34.8016L3.07082 34.7918L3.27011 34.7506C3.43976 34.7156 3.59954 34.6825 3.76382 34.6609C3.78496 34.6557 3.80701 34.6554 3.8283 34.6599C3.84959 34.6644 3.86959 34.6735 3.88681 34.687C3.90547 34.7085 3.91911 34.7337 3.92671 34.7613C3.93434 34.7887 3.93573 34.8176 3.93078 34.8455C3.93034 34.8544 3.93034 34.8636 3.93078 34.8725V36.4294C3.95016 36.7606 3.9199 37.0931 3.84102 37.4153C3.78414 37.614 3.68421 37.798 3.54834 37.9539C3.41245 38.11 3.24393 38.2341 3.05466 38.3179C2.89966 38.3905 2.73906 38.4504 2.57441 38.4972C2.53214 38.5117 2.48799 38.5198 2.44335 38.5214ZM2.40745 38.3476C2.43347 38.4236 2.44604 38.4202 2.543 38.3905C2.70271 38.3437 2.85823 38.2838 3.00797 38.2112C3.18285 38.1347 3.33877 38.0209 3.4647 37.8777C3.59066 37.7345 3.68357 37.5651 3.73691 37.3822C3.81398 37.0699 3.84423 36.748 3.82667 36.4268C3.82667 36.3784 3.82667 36.3297 3.82667 36.2814V34.8696C3.82667 34.8607 3.82667 34.8499 3.82667 34.8384C3.82945 34.8142 3.8273 34.79 3.82039 34.7666C3.82039 34.7666 3.81321 34.7621 3.78806 34.7666C3.62559 34.7918 3.4667 34.825 3.29884 34.8562L3.15162 34.8859C3.16508 34.9637 3.17943 35.0384 3.19382 35.1117C3.23605 35.3012 3.26307 35.4936 3.27459 35.6871C3.29345 36.1676 3.29345 36.6733 3.27459 37.2253C3.26473 37.5607 3.16237 37.7991 2.96311 37.9549C2.83295 38.0546 2.6938 38.1495 2.55914 38.2417L2.40745 38.3476Z" fill="white"/>
<path d="M14.4307 39.1704H14.3732C14.3562 39.0056 14.3382 38.8398 14.3221 38.6821H13.8643V41.0437H14.4029C14.4029 40.6755 14.393 40.3267 14.4091 39.9816C14.4163 39.8425 14.4505 39.7061 14.5097 39.5799C14.6632 39.2564 14.963 39.1481 15.3068 39.1023V38.5869C14.9146 38.6479 14.6533 38.8792 14.4307 39.1704Z" fill="white"/>
<path d="M14.4586 41.0965H13.8096V38.6263H14.3724L14.3769 38.6765C14.3859 38.7661 14.3957 38.8558 14.4056 38.9454L14.4209 39.0916C14.6067 38.8568 14.8697 38.5969 15.2988 38.5322L15.3626 38.5225V39.1499L15.3141 39.1562C14.9083 39.2098 14.6857 39.3434 14.56 39.6044C14.5032 39.7237 14.4706 39.853 14.464 39.9852C14.4532 40.2333 14.455 40.4799 14.4568 40.7409C14.4568 40.8403 14.4568 40.9415 14.4568 41.0448L14.4586 41.0965ZM13.92 40.9856H14.3473C14.3473 40.902 14.3473 40.8198 14.3473 40.738C14.3473 40.4755 14.3428 40.2281 14.3553 39.9763C14.3621 39.8298 14.3978 39.6864 14.4604 39.5542C14.6292 39.1956 14.9649 39.0952 15.2522 39.0521V38.6515C14.9595 38.7125 14.7135 38.8844 14.4756 39.2009L14.4586 39.2232H14.3248L14.2961 38.9543C14.2889 38.8792 14.2809 38.8055 14.2737 38.7322H13.9209L13.92 40.9856Z" fill="white"/>
<path d="M17.0881 16.6953V31.4965C17.0881 32.1473 16.7111 32.4824 16.1536 32.5668C15.8017 32.6196 15.5198 32.4207 15.2766 32.1725C14.6913 31.5748 14.1033 30.9808 13.5126 30.3904C11.9507 28.8244 10.3884 27.2591 8.82584 25.6946C8.74005 25.6082 8.67261 25.5054 8.62755 25.3923C8.58252 25.2793 8.56081 25.1583 8.56374 25.0367V8.33968C8.56374 7.95784 8.78726 7.70059 9.03592 7.45412L10.8106 5.68294L12.9408 3.55684L14.9839 1.52215C15.1482 1.35453 15.3215 1.19499 15.5019 1.0444C16.0773 0.580995 16.9094 0.96642 17.0468 1.58669C17.071 1.68717 17.0845 1.78992 17.0872 1.89323C17.0902 6.82786 17.0905 11.7619 17.0881 16.6953Z" fill="#662577"/>
<path d="M18.0579 24.7256V9.96027C18.0579 9.3902 18.3048 9.02897 18.8272 8.88466C19.2024 8.78158 19.5274 8.89991 19.794 9.16433C20.5517 9.91545 21.2994 10.6756 22.0544 11.4294C22.989 12.3634 23.9253 13.2964 24.8631 14.2286C25.3497 14.7145 25.8399 15.1985 26.3227 15.6879C26.405 15.7704 26.4697 15.8683 26.5136 15.976C26.5577 16.0837 26.5798 16.199 26.5787 16.3153V33.0131C26.5824 33.1545 26.5569 33.2949 26.5036 33.4258C26.45 33.5567 26.3698 33.675 26.2681 33.7733C25.1005 34.939 23.9334 36.1074 22.7672 37.2778C21.7737 38.2698 20.782 39.266 19.7922 40.2664C19.6146 40.4583 19.3678 40.5721 19.1062 40.5826C18.8446 40.5929 18.5896 40.4993 18.3972 40.3219C18.3052 40.2377 18.2302 40.1368 18.1764 40.0243C18.094 39.8401 18.0541 39.6398 18.0597 39.4382C18.0537 34.6612 18.0522 29.8847 18.0552 25.1084L18.0579 24.7256Z" fill="#CB2E79"/>
</svg>
