<svg width="464" height="327" viewBox="0 0 464 327" fill="none" xmlns="http://www.w3.org/2000/svg">
<rect x="1.2864" y="12.5451" width="262.851" height="174.103" rx="8.85303" fill="white" stroke="#00004E" stroke-width="1.96734"/>
<g clip-path="url(#clip0_1179_2557)">
<path d="M132.681 73.7233C128.228 68.3028 127.632 62.6854 127.89 60.5542L121.711 56.3952L112.284 55.6182C108.567 58.6341 101.878 66.9172 104.856 75.922C108.578 87.1781 114.763 94.7066 120.092 94.1632C125.421 93.6198 127.086 82.8077 127.421 81.9931C127.756 81.1784 127.918 77.4017 129.04 76.9326C130.161 76.4635 132.236 75.9326 132.681 73.7233Z" fill="white" stroke="#00004E" stroke-width="1.96752" stroke-linecap="round"/>
<path d="M112.054 98.1548L112.197 89.8888L105.346 82.7118L98.5401 94.0151L112.054 98.1548Z" fill="white" stroke="#00004E" stroke-width="1.9675"/>
<path d="M117.71 66.6613C118.602 63.5905 124.436 62.7237 127.241 62.6741L127.068 59.712L122.635 59.2062L112.814 58.2565L107.277 68.3283C106.365 71.2946 105.398 78.7578 108.82 84.8794C113.097 92.5315 118.432 95.3575 122.356 93.7157C125.496 92.4023 128.276 81.5873 128.108 77.485L117.062 81.7686C116.814 78.613 116.595 71.1738 117.71 66.6613Z" fill="#00004E"/>
<path d="M146.836 147.226C135.306 117.883 133.153 101.421 110.415 96.4913C101.732 93.0491 78.6599 88.2408 73.9074 98.9175C54.7889 141.868 59.8533 166.885 48.7901 186.492C39.8152 202.397 -3.55078 291.538 -9.36612 311.814L90.642 342.45C96.1444 329.587 100.776 233.969 122.481 147.226C129.204 159.609 136.35 164.863 143.931 167.185C156.015 170.887 175.524 153.421 201.565 119.21L192.296 111.456C184.242 119.194 168.021 132.174 146.836 147.226Z" fill="white"/>
<path d="M113.207 127.851C115.641 135.167 120.108 142.856 122.481 147.226M122.481 147.226C129.204 159.609 136.35 164.863 143.931 167.185C156.015 170.887 175.524 153.421 201.565 119.21L192.296 111.456C184.242 119.194 168.021 132.174 146.836 147.226C135.306 117.883 133.153 101.421 110.415 96.4913C101.732 93.0491 78.6599 88.2408 73.9074 98.9175C54.7889 141.868 59.8533 166.885 48.7901 186.492C39.8152 202.397 -3.55078 291.538 -9.36613 311.814L90.642 342.45C96.1444 329.587 100.776 233.969 122.481 147.226Z" stroke="#00004E" stroke-width="1.9675"/>
<path d="M120.618 60.7246L127.618 60.7872C128.624 58.3434 126.023 46.6182 117.324 45.1994C108.625 43.7806 103.527 48.2735 102.857 49.9028C102.186 51.532 94.0821 70.0956 88.2614 78.5999C82.4407 87.1043 56.491 135.341 73.8386 142.967C93.1149 150.046 106.451 101.041 112.038 68.4969C112.621 65.0991 117.312 63.1193 120.618 60.7246Z" fill="white" stroke="#00004E" stroke-width="1.96752"/>
<path d="M127.733 54.7134C119.296 53.4097 104.535 52.2118 101.076 50.6915" stroke="#00004E" stroke-width="2.95128" stroke-linecap="round"/>
<ellipse cx="1.11082" cy="2.26272" rx="1.11082" ry="2.26272" transform="matrix(0.978731 -0.166606 0.156085 0.9947 123.353 65.3575)" fill="#00004E"/>
<path d="M157.869 186.719L118.147 166.193L113.292 186.719L134.918 186.719L157.869 186.719Z" stroke="#00004E" stroke-width="1.96761"/>
<path d="M117.705 99.5963C111.967 119.058 96.0785 160.719 60.7693 171.667" stroke="#00004E" stroke-width="1.96761"/>
<rect width="38.6221" height="49.5697" rx="5.90259" transform="matrix(0.903478 0.434846 -0.409793 0.909386 47.3402 150.495)" fill="#00004E"/>
<path d="M61.2109 137.456L53.7081 153.877" stroke="#00004E" stroke-width="1.96761"/>
<path d="M203.725 113.78C203.68 105.184 206.698 89.7771 219.13 96.9138" stroke="#00BF00" stroke-width="2.95109"/>
<path d="M234.99 116.153C233.486 119.939 229.557 120.58 227.78 120.427C227.654 121.015 227.347 122.674 227.128 124.613C232.883 125.678 238.329 122.72 239.471 115.396C240.613 108.071 242.428 107.085 245.047 104.945C244.871 104.522 244.466 103.345 244.256 102.022C238.6 103.657 236.871 111.42 234.99 116.153Z" fill="#00BF00"/>
<path d="M220.446 94.8379L202.527 114.506L226.586 127.421L231.147 100.162L220.446 94.8379Z" fill="#00BF00"/>
<path d="M205.918 111.016L209.556 107.006L228.402 116.047L227.371 121.995L205.918 111.016Z" fill="#80DF80"/>
<path d="M216.88 98.5668L218.771 96.7634L231.071 102.188L230.319 104.54L216.88 98.5668Z" fill="#80DF80"/>
<ellipse cx="1.9475" cy="2.00924" rx="1.9475" ry="2.00924" transform="matrix(0.986027 -0.166588 0.156238 0.987719 224.659 94.4657)" fill="#00BF00"/>
<path d="M200.624 101.872L193.698 112.069L197.593 115.561C198.736 114.352 200.69 112.594 203.065 111.99C206.034 111.234 205.638 108.636 206.099 105.764C206.561 102.891 210.255 102.682 213.488 100.285C212.168 98.3718 204.362 100.546 200.624 101.872Z" fill="white" stroke="#00004E" stroke-width="1.9674"/>
</g>
<rect x="199.901" y="143.001" width="262.851" height="174.103" rx="8.85303" fill="white" stroke="#00004E" stroke-width="1.96734"/>
<rect x="0.302734" y="27.9824" width="264.819" height="1.82456" fill="#00004E"/>
<rect x="198.917" y="159.351" width="264.819" height="1.82456" fill="#00004E"/>
<path d="M13.4427 21.1404C13.4427 22.8951 12.0744 24.262 10.4541 24.262C8.83381 24.262 7.46548 22.8951 7.46548 21.1404C7.46548 19.3856 8.83381 18.0188 10.4541 18.0188C12.0744 18.0188 13.4427 19.3856 13.4427 21.1404Z" stroke="#00004E" stroke-width="1.96734"/>
<path d="M212.94 151.596C212.94 153.351 211.571 154.718 209.951 154.718C208.331 154.718 206.962 153.351 206.962 151.596C206.962 149.842 208.331 148.475 209.951 148.475C211.571 148.475 212.94 149.842 212.94 151.596Z" stroke="#00004E" stroke-width="1.96734"/>
<path d="M24.9182 21.1404C24.9182 22.8951 23.5498 24.262 21.9296 24.262C20.3093 24.262 18.9409 22.8951 18.9409 21.1404C18.9409 19.3856 20.3093 18.0188 21.9296 18.0188C23.5498 18.0188 24.9182 19.3856 24.9182 21.1404Z" stroke="#00004E" stroke-width="1.96734"/>
<path d="M224.415 151.596C224.415 153.351 223.047 154.718 221.426 154.718C219.806 154.718 218.438 153.351 218.438 151.596C218.438 149.842 219.806 148.475 221.426 148.475C223.047 148.475 224.415 149.842 224.415 151.596Z" stroke="#00004E" stroke-width="1.96734"/>
<path d="M36.3936 21.1404C36.3936 22.8951 35.0253 24.262 33.405 24.262C31.7847 24.262 30.4164 22.8951 30.4164 21.1404C30.4164 19.3856 31.7847 18.0188 33.405 18.0188C35.0253 18.0188 36.3936 19.3856 36.3936 21.1404Z" stroke="#00004E" stroke-width="1.96734"/>
<path d="M235.891 151.596C235.891 153.351 234.522 154.718 232.902 154.718C231.282 154.718 229.913 153.351 229.913 151.596C229.913 149.842 231.282 148.475 232.902 148.475C234.522 148.475 235.891 149.842 235.891 151.596Z" stroke="#00004E" stroke-width="1.96734"/>
<path d="M292.36 153.458C292.634 152.639 292.449 151.815 292.083 151.089L291.052 149.04C287.026 151.205 285.704 157.373 285.731 161.977C282.099 159.312 276.452 156.891 272.427 159.056L273.458 161.104C273.858 161.897 274.491 162.396 275.297 162.634L288.519 167.362L292.36 153.458Z" fill="#00BF00"/>
<path d="M283.514 151.705C283.605 151.436 283.544 151.165 283.423 150.926L283.084 150.252C281.76 150.964 281.325 152.993 281.334 154.507C280.14 153.63 278.283 152.834 276.959 153.546L277.298 154.22C277.429 154.48 277.637 154.645 277.903 154.723L282.251 156.278L283.514 151.705Z" fill="#00BF00"/>
<path d="M294.448 166.205C294.683 165.726 294.636 165.204 294.47 164.726L294.003 163.38C291.357 164.359 290.044 168.031 289.687 170.859C287.674 168.908 284.405 166.933 281.758 167.912L282.225 169.259C282.405 169.78 282.753 170.142 283.229 170.358L290.961 174.406L294.448 166.205Z" fill="#00BF00"/>
<path d="M291.46 177.45C291.339 174.166 288.971 164.78 280.477 153.51" stroke="#007300" stroke-width="1.82064" stroke-linecap="round" stroke-linejoin="round"/>
<path d="M274.902 149.17C276.328 151.428 279.834 153.834 281.409 154.755C281.72 152.993 282.052 148.783 280.892 146.042C279.441 142.615 275.516 140.996 274.367 142.227C273.217 143.458 273.12 146.348 274.902 149.17Z" fill="#00BF00"/>
<path d="M290.743 193.022C301.483 246.164 342.518 254.127 362.733 249.863L367.127 224.513C304.631 229.926 302.316 198.926 299.076 192.53C297.224 192.53 293.521 193.022 290.743 193.022Z" fill="white"/>
<path d="M284.463 187.165C283.999 185.769 283.313 182.654 284.275 181.365C284.974 180.255 286.206 180.678 285.815 181.894C285.425 183.109 285.357 185.448 285.876 185.963C286.29 186.376 286.75 187.501 286.928 188.012" stroke="#00004E" stroke-width="1.82045"/>
<path d="M291.027 192.53L290.559 191.243C288.31 191.586 286.186 191.672 285.406 191.672C284.469 191.243 282.126 189.956 281.658 187.812C281.283 186.783 281.189 186.096 281.189 185.667C280.721 184.381 282.447 183.431 282.595 184.381C283.064 187.383 284.001 188.241 285.406 188.241C286.731 188.241 287.28 187.383 290.09 186.954C292.901 186.525 295.712 186.096 297.586 186.954C299.46 187.812 297.118 189.956 297.118 192.101" stroke="#00004E" stroke-width="1.82028"/>
<path d="M362.733 249.889C342.518 254.129 301.483 245.857 290.743 193.019C293.521 193.019 297.224 192.53 299.076 192.53C302.316 198.89 304.631 229.712 367.127 224.33" stroke="#00004E" stroke-width="1.82028"/>
<path d="M285.855 186.84L283.862 176.172H298.313L296.319 186.84H285.855Z" fill="#00BF00"/>
<path d="M355.649 234.159C356.535 228.232 358.925 226.926 359.288 227.501H391.511C419.767 240.616 432.446 277.065 434.982 288.631C435.707 291.118 437.59 297.51 439.329 303.181C440.054 309.897 433.171 316.986 427.737 316.986H347.679C348.765 309.524 346.23 306.912 344.418 304.301C349.49 302.56 360.358 298.854 363.256 297.958C360.937 292.586 360.424 285.273 360.457 282.288C351.841 268.109 351.839 263.397 353.838 252.814C354.966 246.844 354.925 239.009 355.649 234.159Z" fill="white"/>
<path d="M386.734 225.776C394.71 225.026 437.768 264.77 437.768 317.227L415.652 317.227" stroke="#00004E" stroke-width="1.82028"/>
<path d="M359.156 227.501C358.796 226.924 356.426 228.236 355.549 234.186C354.831 239.055 354.872 246.92 353.754 252.913C351.24 266.397 351.919 270.387 369.191 296.362" stroke="#00004E" stroke-width="1.82028"/>
<path d="M363.086 227.511C361.155 225.768 360.338 229.144 359.113 236.741C358.659 239.555 358.705 243.494 357.48 251.513C355.205 266.406 355.305 269.774 372.998 295.827" stroke="#00004E" stroke-width="1.82028"/>
<path d="M371.956 196.797C371.879 198.109 372.139 200.976 373.785 201.945C375.432 202.915 375.997 208.391 376.073 210.309" stroke="#00004E" stroke-width="1.82028"/>
<path d="M356.117 213.027C356.676 223.628 365.674 223.824 370.104 222.597C371.852 222.235 377.447 216.708 380.944 208.978C384.091 200.88 374.649 196.095 371.852 196.095C362.411 195.726 356.117 206.769 356.117 213.027Z" stroke="#00004E" stroke-width="1.82028"/>
<path d="M355.846 209.894C356.492 222.145 366.883 222.372 371.998 220.954C374.017 220.536 380.478 214.148 384.516 205.215C388.15 195.857 377.248 190.327 374.017 190.327C363.114 189.902 355.846 202.663 355.846 209.894Z" fill="white" stroke="#00004E" stroke-width="1.82028"/>
<ellipse cx="1.21016" cy="1.88888" rx="1.21016" ry="1.88888" transform="matrix(0.663415 0.748251 -0.727799 0.68579 372.033 197.667)" fill="#00004E"/>
<ellipse cx="1.00962" cy="1.57587" rx="1.00962" ry="1.57587" transform="matrix(0.663415 0.748251 -0.727799 0.68579 364.516 193.534)" fill="#00004E"/>
<path d="M332.16 311.865L346.453 308.488C349.067 308.826 348.359 314.256 347.679 316.929C344.548 316.929 337.633 317.014 335.019 317.351C333.386 318.617 328.485 319.039 326.852 318.195C326.307 318.477 325.136 319.293 324.81 320.306C324.401 321.15 323.503 323.344 323.176 325.37C320.889 325.032 321.407 320.446 321.951 318.195C321.407 319.743 319.991 323.26 318.684 324.948C317.051 327.058 317.867 319.884 317.867 318.195C319.174 309.417 327.941 310.317 332.16 311.865Z" fill="white"/>
<path d="M394.768 239.467C401.961 242.887 409.379 251.766 419.083 265.928C432.362 285.308 431.809 301.026 431.809 304.446C431.809 307.866 428.489 316.986 419.083 316.986C401.821 316.986 366.366 316.986 347.738 316.986C348.291 314.516 348.402 308.55 344.418 304.446C357.697 299.43 386.1 290.956 398.641 287.346C396.797 276.897 391.227 254.629 383.702 249.157" stroke="#00004E" stroke-width="1.82028" stroke-linecap="round"/>
<path d="M371.766 232.356C373.295 232.739 369.366 233.297 367.18 245C364.03 261.87 374.06 275.463 376.353 277.762C378.646 280.061 385.558 285.636 384.985 291.384" stroke="#00004E" stroke-width="1.82028"/>
<path d="M375.616 232.521C371.133 239.333 365.53 257.132 378.978 273.83C384.02 280.352 388.516 283.588 388.924 289.919" stroke="#00004E" stroke-width="1.82028"/>
<path d="M346.483 308.452L332.234 311.803C323.216 309.01 318.144 313.478 317.581 317.946C317.581 320.18 317.74 319.425 318.303 320.542" stroke="#00004E" stroke-width="1.82028"/>
<path d="M321.393 314.852C320.6 315.834 318.775 316.266 317.823 321.921C316.634 328.99 319.645 323.742 320.203 322.022C321.888 316.825 323.179 317.798 323.774 317.209" stroke="#00004E" stroke-width="1.82028"/>
<path d="M321.021 320.089C321.021 320.958 321.355 325.52 322.691 325.52C323.247 325.52 323.803 325.52 323.803 322.914C323.803 320.309 326.585 317.703 327.142 318.354C327.698 319.006 332.705 319.006 334.374 317.703C336.6 317.182 342.534 316.835 347.171 317.052" stroke="#00004E" stroke-width="1.82028"/>
<path d="M359.291 221.948C354.877 218.02 355.735 215.86 356.349 212.839C360.394 227.569 372.43 217.285 374.74 214.395C386.511 199.665 377.315 192.866 374.74 191.356C373.463 190.606 369.621 189.845 366.679 191.356C374.74 183.107 386.329 191.356 388.053 194.119C389.299 196.116 390.567 198.194 391.293 201.175C392.88 207.7 390.168 209.881 389.432 210.637C388.696 211.392 388.053 219.079 389.821 224.214C392.897 233.148 381.728 233.657 379.522 233.279C377.316 232.901 376.579 231.39 369.591 232.901C362.602 234.412 359.291 229.502 356.349 225.347C356.471 224.466 357.231 222.553 359.291 221.948Z" fill="#00004E" stroke="#00004E" stroke-width="1.82028"/>
<path d="M360.273 208.454C359.783 206.682 364.073 203.041 365.624 201.944L362.967 209.574C362.15 209.815 360.239 209.285 360.273 208.454Z" fill="white"/>
<path d="M367.235 197.667C365.472 198.914 360.922 201.243 361.479 203.257C361.44 204.203 363.614 204.805 364.542 204.531" stroke="#00004E" stroke-width="1.82041" stroke-linecap="round"/>
<defs>
<clipPath id="clip0_1179_2557">
<rect width="260.405" height="185.193" fill="white" transform="translate(2.06824 0.614014)"/>
</clipPath>
</defs>
</svg>
