<svg width="290" height="287" viewBox="0 0 290 287" fill="none" xmlns="http://www.w3.org/2000/svg">
<g clip-path="url(#clip0_982_4721)">
<path d="M103.919 21.1729C102.175 20.9039 100.381 20.8781 98.6361 21.1642C97.941 21.2794 97.2529 21.4442 96.5862 21.6693C95.5274 23.6554 94.8699 25.7475 94.6984 28.1278C94.4142 32.0374 95.2707 35.9 96.3417 39.6393L101.485 37.9884L97.9073 56.2598L83.9288 43.6222L88.6824 42.0967C87.3675 35.7718 87.4711 29.1886 92.2504 24.1015C94.5696 21.6326 97.1982 19.2314 99.9971 17.3026C101.625 16.1812 103.455 15.4538 105.411 15.1313C109.316 14.4888 113.401 15.3819 116.878 17.1716C120.67 19.1251 123.785 22.191 125.796 25.9259C126.008 26.3222 122.91 28.832 122.577 29.128C122.329 29.3471 119.069 32.0442 119.021 31.9588C115.984 26.3174 110.331 22.1599 103.922 21.1718L103.919 21.1729Z" fill="#00BF00"/>
</g>
<rect x="110.514" y="2" width="138.912" height="276.429" rx="26" fill="white" stroke="#00004E" stroke-width="4"/>
<rect x="120.268" y="108.556" width="118.073" height="76.4452" rx="4" fill="#BFEFBF"/>
<circle cx="179.462" cy="145.226" r="24.6517" stroke="white" stroke-width="2"/>
<circle cx="162.023" cy="127.787" r="8.21281" fill="white"/>
<mask id="path-6-inside-1_982_4721" fill="white">
<path fill-rule="evenodd" clip-rule="evenodd" d="M193.778 137.98C195.981 137.75 199.22 138.095 200.389 140.299C200.78 141.037 201.547 141.93 202.325 142.835C203.871 144.633 205.457 146.479 204.221 147.257C203.535 147.681 202.438 147.664 201.269 147.363C200.882 148.499 200.484 149.365 200.484 149.365C200.484 149.365 201.289 153.198 200.484 154.118C200.049 154.626 199.137 154.719 197.179 154.919C195.816 155.058 193.948 155.249 191.382 155.666C187.285 159.614 180.337 166.373 179.732 167.381C178.869 168.819 179.732 151.109 179.732 151.109V151.128C181.306 150.35 183.04 149.514 184.663 148.739C184.976 148.282 185.293 147.814 185.613 147.341C188.591 142.951 191.824 138.184 193.778 137.98Z"/>
</mask>
<path fill-rule="evenodd" clip-rule="evenodd" d="M193.778 137.98C195.981 137.75 199.22 138.095 200.389 140.299C200.78 141.037 201.547 141.93 202.325 142.835C203.871 144.633 205.457 146.479 204.221 147.257C203.535 147.681 202.438 147.664 201.269 147.363C200.882 148.499 200.484 149.365 200.484 149.365C200.484 149.365 201.289 153.198 200.484 154.118C200.049 154.626 199.137 154.719 197.179 154.919C195.816 155.058 193.948 155.249 191.382 155.666C187.285 159.614 180.337 166.373 179.732 167.381C178.869 168.819 179.732 151.109 179.732 151.109V151.128C181.306 150.35 183.04 149.514 184.663 148.739C184.976 148.282 185.293 147.814 185.613 147.341C188.591 142.951 191.824 138.184 193.778 137.98Z" fill="white"/>
<path d="M200.389 140.299L198.622 141.236L198.622 141.236L200.389 140.299ZM193.778 137.98L193.985 139.969L193.778 137.98ZM202.325 142.835L200.809 144.139L200.809 144.139L202.325 142.835ZM204.221 147.257L205.273 148.958L205.28 148.954L205.286 148.95L204.221 147.257ZM201.269 147.363L201.768 145.426L199.974 144.964L199.376 146.718L201.269 147.363ZM200.484 149.365L198.667 148.531L198.392 149.131L198.527 149.776L200.484 149.365ZM200.484 154.118L198.979 152.801L198.972 152.809L198.966 152.817L200.484 154.118ZM197.179 154.919L196.976 152.929L197.179 154.919ZM191.382 155.666L191.06 153.692L190.444 153.793L189.994 154.226L191.382 155.666ZM179.732 167.381L178.017 166.353H178.017L179.732 167.381ZM179.732 151.109H181.732L177.734 151.012L179.732 151.109ZM179.732 151.128H177.732V154.348L180.618 152.921L179.732 151.128ZM184.663 148.739L185.525 150.544L186.011 150.312L186.315 149.867L184.663 148.739ZM185.613 147.341L183.958 146.219L183.958 146.219L185.613 147.341ZM202.156 139.362C201.212 137.584 199.513 136.707 197.993 136.296C196.462 135.882 194.843 135.858 193.57 135.991L193.985 139.969C194.916 139.872 196.018 139.906 196.949 140.158C197.892 140.413 198.396 140.811 198.622 141.236L202.156 139.362ZM203.842 141.531C203.003 140.555 202.418 139.856 202.156 139.362L198.622 141.236C199.143 142.218 200.092 143.305 200.809 144.139L203.842 141.531ZM205.286 148.95C206.164 148.397 206.661 147.506 206.664 146.497C206.666 145.673 206.338 144.949 206.065 144.457C205.508 143.455 204.564 142.372 203.842 141.531L200.809 144.139C201.632 145.096 202.254 145.835 202.568 146.4C202.73 146.691 202.663 146.688 202.664 146.485C202.664 146.348 202.696 146.148 202.813 145.94C202.929 145.734 203.073 145.616 203.156 145.564L205.286 148.95ZM200.77 149.3C202.051 149.63 203.855 149.835 205.273 148.958L203.169 145.556C203.231 145.518 203.174 145.576 202.882 145.583C202.605 145.589 202.227 145.544 201.768 145.426L200.77 149.3ZM199.376 146.718C199.199 147.237 199.018 147.698 198.882 148.028C198.815 148.193 198.758 148.323 198.72 148.41C198.701 148.454 198.687 148.487 198.677 148.507C198.673 148.517 198.67 148.525 198.668 148.529C198.667 148.531 198.666 148.532 198.666 148.532C198.666 148.533 198.666 148.533 198.666 148.532C198.666 148.532 198.666 148.532 198.666 148.532C198.666 148.532 198.666 148.532 198.666 148.532C198.666 148.532 198.666 148.532 198.666 148.531C198.667 148.531 198.667 148.531 200.484 149.365C202.302 150.199 202.302 150.199 202.303 150.199C202.303 150.199 202.303 150.198 202.303 150.198C202.303 150.198 202.303 150.198 202.303 150.198C202.303 150.197 202.303 150.197 202.304 150.196C202.304 150.195 202.305 150.194 202.305 150.193C202.307 150.19 202.308 150.186 202.31 150.181C202.315 150.172 202.32 150.16 202.327 150.144C202.341 150.113 202.361 150.069 202.385 150.014C202.433 149.903 202.501 149.746 202.581 149.552C202.74 149.165 202.952 148.625 203.162 148.008L199.376 146.718ZM200.484 149.365C198.527 149.776 198.527 149.776 198.527 149.776C198.527 149.776 198.527 149.775 198.527 149.775C198.527 149.775 198.527 149.775 198.527 149.775C198.527 149.775 198.527 149.775 198.527 149.775C198.527 149.775 198.527 149.777 198.528 149.779C198.529 149.784 198.53 149.792 198.533 149.803C198.537 149.826 198.544 149.861 198.553 149.908C198.571 150.002 198.597 150.14 198.625 150.31C198.683 150.653 198.751 151.11 198.795 151.583C198.841 152.069 198.855 152.507 198.83 152.834C198.817 152.996 198.799 153.079 198.792 153.101C198.781 153.14 198.813 152.991 198.979 152.801L201.99 155.435C202.657 154.673 202.778 153.664 202.818 153.141C202.868 152.49 202.833 151.797 202.778 151.21C202.721 150.61 202.638 150.051 202.57 149.647C202.536 149.443 202.505 149.274 202.482 149.155C202.47 149.095 202.461 149.048 202.454 149.014C202.451 148.997 202.448 148.983 202.446 148.973C202.445 148.968 202.444 148.964 202.443 148.961C202.443 148.959 202.443 148.958 202.442 148.957C202.442 148.956 202.442 148.956 202.442 148.955C202.442 148.955 202.442 148.955 202.442 148.955C202.442 148.954 202.442 148.954 200.484 149.365ZM198.966 152.817C199.186 152.561 199.388 152.593 198.988 152.678C198.592 152.762 198.003 152.825 196.976 152.929L197.382 156.909C198.312 156.814 199.159 156.73 199.817 156.591C200.472 156.452 201.348 156.184 202.003 155.42L198.966 152.817ZM196.976 152.929C195.604 153.069 193.688 153.265 191.06 153.692L191.703 157.64C194.209 157.233 196.029 157.047 197.382 156.909L196.976 152.929ZM189.994 154.226C187.944 156.202 185.174 158.887 182.838 161.207C181.671 162.366 180.604 163.443 179.786 164.298C179.378 164.725 179.021 165.108 178.741 165.425C178.502 165.694 178.202 166.043 178.017 166.353L181.447 168.41C181.413 168.467 181.462 168.385 181.735 168.076C181.967 167.815 182.284 167.473 182.677 167.063C183.46 166.244 184.499 165.195 185.657 164.045C187.971 161.746 190.723 159.078 192.769 157.106L189.994 154.226ZM178.017 166.353C178.024 166.34 178.302 165.827 178.969 165.583C179.393 165.428 179.886 165.417 180.351 165.599C180.767 165.762 181.019 166.023 181.145 166.178C181.371 166.458 181.442 166.716 181.444 166.724C181.462 166.78 181.463 166.8 181.456 166.76C181.423 166.567 181.387 166.119 181.367 165.39C181.328 163.989 181.354 161.955 181.408 159.835C181.461 157.726 181.542 155.568 181.609 153.936C181.642 153.12 181.673 152.437 181.694 151.958C181.705 151.719 181.714 151.53 181.72 151.402C181.723 151.338 181.725 151.289 181.727 151.256C181.728 151.239 181.728 151.227 181.729 151.219C181.729 151.214 181.729 151.211 181.729 151.209C181.729 151.208 181.729 151.208 181.729 151.207C181.729 151.207 181.729 151.207 181.729 151.207C181.729 151.206 181.729 151.206 179.732 151.109C177.734 151.012 177.734 151.012 177.734 151.012C177.734 151.012 177.734 151.013 177.734 151.013C177.734 151.014 177.734 151.014 177.734 151.016C177.734 151.018 177.734 151.021 177.733 151.025C177.733 151.034 177.732 151.047 177.732 151.064C177.73 151.098 177.728 151.148 177.725 151.213C177.718 151.344 177.709 151.535 177.698 151.776C177.676 152.26 177.646 152.949 177.612 153.772C177.545 155.415 177.463 157.595 177.409 159.734C177.355 161.862 177.327 163.986 177.369 165.501C177.389 166.229 177.427 166.93 177.513 167.43C177.535 167.563 177.568 167.728 177.621 167.898C177.658 168.021 177.767 168.363 178.035 168.693C178.18 168.873 178.455 169.152 178.892 169.323C179.38 169.514 179.895 169.503 180.343 169.34C181.058 169.078 181.385 168.513 181.447 168.41L178.017 166.353ZM177.732 151.109V151.128H181.732V151.109H177.732ZM180.618 152.921C182.181 152.149 183.906 151.317 185.525 150.544L183.802 146.934C182.174 147.711 180.431 148.552 178.846 149.335L180.618 152.921ZM183.958 146.219C183.638 146.692 183.322 147.157 183.012 147.611L186.315 149.867C186.629 149.407 186.949 148.936 187.269 148.464L183.958 146.219ZM193.57 135.991C192.433 136.11 191.466 136.808 190.783 137.404C190.031 138.059 189.266 138.914 188.523 139.835C187.036 141.679 185.433 144.044 183.958 146.219L187.269 148.464C188.772 146.248 190.275 144.035 191.636 142.347C192.318 141.501 192.914 140.852 193.411 140.419C193.976 139.927 194.145 139.953 193.985 139.969L193.57 135.991Z" fill="#00004E" mask="url(#path-6-inside-1_982_4721)"/>
<path d="M193.789 135.194C193.268 142.655 196.835 147.848 202.014 146.246C207.193 144.643 206.808 136.328 206.808 136.328C206.889 134.387 193.877 133.252 193.797 135.194H193.789Z" fill="#00BF00"/>
<path d="M205.689 136.948C205.729 136.118 203.5 135.673 200.622 135.381C197.752 135.088 195.322 135.053 195.282 135.884C195.242 136.714 197.511 137.825 200.381 138.106C203.251 138.398 205.64 137.767 205.681 136.936L205.689 136.948Z" fill="#2C2C2C"/>
<path d="M89.5958 75.859C95.7958 78.8268 98.9284 88.8525 94.0206 94.2894C89.1129 99.7263 82.9521 72.6916 89.5958 75.859Z" fill="white" stroke="#00004E" stroke-width="1.5"/>
<path d="M36.226 285.178H3.42027C-1.52359 285.178 1.56153 281.766 13.3271 280.539C25.0928 279.294 27.2581 260.721 27.2581 260.721L36.226 264.133V285.178Z" fill="white" stroke="#00004E" stroke-width="2"/>
<path d="M61.9994 273.652L24.2871 262.739C24.7596 256.562 27.1148 240.907 29.5204 225.583C30.404 219.955 31.2936 214.376 32.0957 209.345C33.573 200.081 34.7535 192.678 35.0533 190.254C35.2205 188.902 35.3777 186.226 35.5825 182.74C35.6655 181.328 35.7562 179.784 35.8586 178.141C36.216 172.404 36.7184 165.391 37.5285 158.394C38.3395 151.39 39.4551 144.438 41.0303 138.811C41.8179 135.997 42.7123 133.545 43.7245 131.596C44.7436 129.633 45.8398 128.262 46.9886 127.507C47.3973 127.239 47.7355 127.222 48.1105 127.375C48.5568 127.557 49.116 128.013 49.7624 128.865C51.0485 130.561 52.3916 133.435 53.7423 137.212C56.4308 144.731 59.0226 155.459 61.2858 166.459C63.5465 177.447 65.4703 188.661 66.8292 197.131C67.5086 201.365 68.0465 204.912 68.4146 207.4C68.5986 208.643 68.7401 209.622 68.8356 210.29C68.8834 210.624 68.9196 210.88 68.9438 211.053L68.9631 211.19L61.9994 273.652Z" fill="white" stroke="#00004E" stroke-width="2"/>
<path d="M142.092 170.713C142.092 170.714 142.093 170.714 143.017 170.333L142.093 170.714L143.116 173.2L143.911 170.814C143.915 170.812 143.92 170.809 143.925 170.807C144.072 170.733 144.549 170.573 145.672 170.712C146.07 170.762 146.485 170.635 146.774 170.53C147.113 170.408 147.505 170.228 147.933 170.009C148.793 169.57 149.884 168.931 151.137 168.153C153.647 166.594 156.883 164.431 160.361 162.082C161.262 161.473 162.179 160.852 163.104 160.226C169.347 155.997 175.961 151.518 180.499 148.91L180.503 148.907C181.325 148.43 182.384 148.907 182.563 149.857L182.564 149.863C182.771 150.928 183.022 152.219 183.304 153.671C185.358 164.228 189.07 183.317 189.638 186.428C189.607 186.471 189.561 186.531 189.492 186.608C189.248 186.879 188.837 187.239 188.243 187.679C187.065 188.553 185.313 189.64 183.14 190.859C178.803 193.291 172.895 196.188 166.802 198.867C160.708 201.547 154.46 203.995 149.444 205.541C146.932 206.315 144.761 206.851 143.089 207.084C142.251 207.2 141.572 207.235 141.055 207.197C140.515 207.158 140.271 207.047 140.188 206.985C140.047 206.878 139.771 206.56 139.377 205.901C139.003 205.274 138.577 204.435 138.107 203.402C137.168 201.339 136.083 198.572 134.912 195.331C132.571 188.853 129.907 180.553 127.393 172.354C124.881 164.159 122.522 156.078 120.791 150.045C119.926 147.029 119.217 144.525 118.726 142.776C118.48 141.901 118.288 141.215 118.158 140.748C118.092 140.514 118.043 140.335 118.009 140.215L117.991 140.15L117.989 140.061C117.986 139.924 117.981 139.721 117.977 139.463C117.968 138.947 117.959 138.208 117.96 137.323C117.961 135.55 117.998 133.198 118.144 130.862C118.29 128.513 118.543 126.237 118.959 124.591C119.169 123.758 119.402 123.171 119.63 122.823C119.697 122.721 119.75 122.658 119.789 122.619C119.839 122.668 119.901 122.734 119.974 122.821C120.243 123.137 120.586 123.624 120.998 124.285C121.816 125.601 122.834 127.487 123.983 129.771C126.278 134.334 129.055 140.401 131.741 146.473C134.425 152.542 137.013 158.602 138.931 163.146C139.889 165.418 140.68 167.311 141.231 168.635C141.506 169.297 141.722 169.817 141.868 170.171L142.036 170.576L142.078 170.679L142.089 170.705L142.092 170.712L142.092 170.713ZM143.861 170.845C143.861 170.845 143.862 170.845 143.863 170.844L143.861 170.845ZM119.856 122.568C119.855 122.568 119.854 122.568 119.853 122.568C119.86 122.564 119.864 122.562 119.868 122.562L119.867 122.565C119.865 122.566 119.861 122.567 119.856 122.568ZM119.669 122.514C119.662 122.51 119.658 122.508 119.658 122.508C119.658 122.507 119.662 122.509 119.669 122.514Z" fill="white" stroke="#00004E" stroke-width="2"/>
<path d="M142.231 284.177H142.236L142.238 284.177L142.246 284.177L142.281 284.177C142.313 284.177 142.361 284.177 142.426 284.176C142.556 284.175 142.751 284.172 143.007 284.165C143.518 284.153 144.272 284.126 145.232 284.069C147.152 283.954 149.895 283.721 153.175 283.242C159.74 282.284 168.425 280.348 176.954 276.445C185.481 272.544 193.814 266.694 199.737 257.926C205.652 249.17 209.217 237.428 208.091 221.635L208.091 221.635C208.009 220.484 207.176 219.307 205.4 218.308C203.64 217.318 201.107 216.604 198.038 216.351C191.911 215.845 183.87 217.196 176.158 221.516L175.919 221.65L175.645 221.644L175.669 220.644C175.645 221.644 175.645 221.644 175.644 221.644L175.644 221.644L175.642 221.644L175.632 221.643L175.593 221.642L175.438 221.639C175.302 221.636 175.101 221.632 174.842 221.628C174.326 221.619 173.58 221.608 172.666 221.601C170.838 221.587 168.338 221.588 165.652 221.646C162.965 221.705 160.101 221.821 157.54 222.037C154.958 222.254 152.758 222.568 151.359 222.999L150.576 223.24L150.186 222.519L151.056 222.048C150.531 222.332 150.323 222.445 150.24 222.489C150.185 222.519 150.185 222.519 150.185 222.519L150.185 222.518L150.183 222.513L150.174 222.498L150.141 222.436C150.111 222.381 150.067 222.3 150.011 222.194C149.897 221.981 149.729 221.668 149.515 221.264C149.086 220.456 148.469 219.284 147.716 217.83C146.211 214.921 144.159 210.877 141.977 206.338C137.623 197.284 132.707 186.177 130.591 178.178C128.49 170.236 125.93 156.73 123.786 144.958C123.267 142.111 122.774 139.368 122.316 136.826C121.825 134.098 121.375 131.6 120.981 129.453C120.601 127.382 120.275 125.649 120.015 124.363C119.886 123.719 119.774 123.193 119.681 122.796C119.615 122.512 119.565 122.322 119.531 122.207C119.503 122.188 119.464 122.163 119.412 122.133C119.204 122.013 118.881 121.867 118.43 121.702C117.536 121.373 116.27 121.014 114.723 120.64C111.638 119.895 107.544 119.117 103.318 118.423C99.0952 117.729 94.7584 117.122 91.1931 116.718C89.4099 116.516 87.8266 116.365 86.5505 116.279C85.2527 116.192 84.3345 116.176 83.8468 116.224C81.5851 116.449 72.6972 117.833 64.0351 120.085C59.7039 121.212 55.4714 122.544 52.1663 124.04C50.513 124.788 49.124 125.563 48.079 126.353C47.0207 127.152 46.401 127.903 46.1493 128.575L142.231 284.177ZM142.231 284.177H71.1416M142.231 284.177H71.1416M62.8421 228.061C63.8344 227.937 63.8343 227.937 63.8343 227.937L63.834 227.935L63.8331 227.927L63.8293 227.897L63.8143 227.777L63.7557 227.309C63.7043 226.899 63.6286 226.297 63.5317 225.528C63.3378 223.989 63.0588 221.783 62.7181 219.113C62.0368 213.772 61.109 206.574 60.1231 199.142C58.1575 184.326 55.9448 168.455 54.9976 164.666C54.5189 162.751 53.543 159.942 52.4184 156.752C52.3118 156.45 52.2037 156.144 52.0944 155.834C51.0427 152.855 49.8792 149.559 48.8344 146.264C47.68 142.623 46.6815 139.018 46.1421 135.878C45.5946 132.691 45.5552 130.166 46.1493 128.575L62.8421 228.061ZM62.8421 228.061L63.8344 227.937L63.954 228.895L63.0007 229.049L63.0001 229.049L62.9972 229.049L62.9842 229.051L62.9309 229.06C62.8833 229.068 62.8118 229.08 62.7181 229.096C62.5307 229.128 62.2542 229.176 61.9008 229.241C61.194 229.37 60.1802 229.564 58.9572 229.823C56.5088 230.341 53.2322 231.118 49.9045 232.15C46.5675 233.185 43.2246 234.465 40.6198 235.977C37.959 237.522 36.3234 239.163 35.9563 240.813C35.8031 241.502 36.0439 242.709 36.8861 244.482C37.7005 246.196 38.9794 248.242 40.5967 250.506C43.8278 255.03 48.3248 260.307 52.9018 265.348C57.4744 270.384 62.1073 275.162 65.5986 278.682C67.3438 280.442 68.8028 281.886 69.825 282.891C70.3362 283.393 70.7381 283.785 71.0119 284.051C71.059 284.097 71.1022 284.139 71.1416 284.177M62.8421 228.061L71.1416 284.177M119.591 122.254C119.591 122.254 119.59 122.253 119.587 122.25C119.59 122.253 119.591 122.254 119.591 122.254Z" fill="white" stroke="#00004E" stroke-width="2"/>
<path d="M139.54 284.067H153.164C153.164 284.067 163.378 276.323 164.298 270.133C165.218 263.942 164.604 256.812 161.826 257.751C153.164 257.751 152.951 272.508 148.314 274.042C143.677 275.594 128.225 274.042 128.225 274.042L139.559 284.067H139.54Z" fill="white" stroke="#00004E" stroke-width="2"/>
<path d="M151.065 222.024C151.065 222.024 149.704 219.514 147.712 215.604C144.646 220.069 115.155 262.465 92.5818 265.992L100.937 272.183C124.813 258.785 154.073 233.486 173.734 220.606C168.809 220.549 155.913 220.549 151.065 222.024Z" fill="#00004E"/>
<path d="M69.1558 120.235C71.8934 122.23 83.9472 122.824 86.6558 124C87.1558 127 87.1558 128 88.1558 130.5C89.6558 132 92.1558 133 92.1558 133L94.1558 128.5L91.6558 122.5L96.1558 120.235L93.1558 114L86.1941 97.1714L75.1837 102.573L75.4953 120.235H69.1558Z" fill="white" stroke="#00004E" stroke-width="2"/>
<path d="M80.3592 120.543C80.3574 120.543 80.3557 120.542 80.3539 120.541C77.5819 117.114 75.9829 112.779 75.0777 109.243C74.6212 107.459 74.3451 105.895 74.1834 104.778C74.1025 104.22 74.0504 103.774 74.0185 103.47C74.0026 103.318 73.9918 103.201 73.985 103.123C73.9816 103.084 73.9793 103.055 73.9778 103.036L73.9766 103.021L73.3848 87.5562L90.9087 80.7634C90.9507 80.7973 90.996 80.8349 91.0438 80.8759C91.3097 81.104 91.6413 81.4283 91.9249 81.8222C92.4891 82.6059 92.8047 83.5576 92.2167 84.6353L92.2155 84.6376C91.2372 86.4452 91.9882 88.0927 92.7391 89.4931C92.8429 89.6867 92.9476 89.8775 93.0512 90.0664C93.7436 91.3287 94.3905 92.5081 94.4492 93.9034L94.457 94.0883L94.5498 94.2483C94.9761 94.983 95.4187 95.8423 95.8958 96.7686L95.9495 96.8727C96.4433 97.8312 96.9709 98.8515 97.536 99.8308C98.6484 101.758 99.98 103.666 101.631 104.645C102.764 105.317 103.628 105.991 104.253 106.554C104.945 107.176 105.11 108.182 104.668 109.098C103.798 110.897 102.321 113.471 100.439 115.029L100.438 115.03C98.8853 116.322 95.7799 118.153 92.7902 119.675C91.3042 120.431 89.8686 121.1 88.6964 121.578C88.1096 121.817 87.5982 122.004 87.1848 122.13C86.7505 122.263 86.4905 122.307 86.377 122.307C86.0099 122.307 85.4467 122.209 84.761 122.034C84.0907 121.863 83.357 121.632 82.6711 121.398C81.9868 121.165 81.3586 120.931 80.901 120.755C80.6724 120.667 80.487 120.594 80.3592 120.543Z" fill="#00004E" stroke="#00004E" stroke-width="1.5"/>
<path d="M78.0282 91.0694C79.1332 93.6275 81.9335 104.809 82.9174 105.442C83.9013 106.075 89.8804 105.653 90.6221 105.759C91.3487 105.864 94.9059 103.748 95.5113 103.643C96.1168 103.537 96.8847 102.462 96.8847 102.462C96.8847 102.462 98.2057 102.462 98.569 102.462C98.9323 102.462 95.8746 93.944 95.5113 93.1924C95.148 92.4408 91.606 85.3071 91.606 85.3071C91.606 85.3071 84.6431 88.7091 84.0224 89.1443C83.4018 89.5794 82.9174 90 82.0136 90.5C81.5136 90.5 81.0136 90.5 80.0136 91C79.0136 91 78.0282 91.0562 78.0282 91.0562V91.0694Z" fill="white" stroke="#00004E" stroke-width="1.5"/>
<path d="M75.2038 89.7379C76.644 108.088 75.3623 128.45 74.8867 128.45C74.411 128.45 52.5135 139.5 50.5136 124.5C48.9148 121.653 59.6385 118.19 60.9202 115.5C62.2019 112.809 62.5136 104.5 62.5136 99C62.5136 97 60.9202 93.5 60.9202 89.6465L59.9556 87.5959C59.9556 87.5959 58.2319 85.8679 59.5136 80.5C60.7953 75.1189 63.9593 71.6226 73.0896 68.7754C82.22 65.9282 89.1702 72.7629 90.6105 74.5C92.0507 76.2371 90.6105 78.3489 90.6105 78.3489L91.5751 79.9293C94.8519 82.3847 81.6745 87.4644 75.0546 89.0448L75.2038 89.7379Z" fill="white" stroke="#00004E" stroke-width="2"/>
<path d="M91.9968 75.6C84.2849 79.0981 63.6979 86.687 59.623 87.164L60.6981 89.6214C69.0603 88.3349 92.103 78.9969 92.103 78.9969L91.9968 75.6144V75.6Z" fill="#00004E"/>
<path d="M140.649 284.178H65.6206C60.2912 284.178 50.8627 284.061 41.6865 282.11C32.4616 280.149 23.7739 276.393 19.5909 269.335L19.5906 269.334C15.3054 262.113 14.1211 252.938 17.1477 246.163C18.65 242.8 21.193 240.01 24.9551 238.295C28.7302 236.575 33.805 235.904 40.4031 236.928C53.7089 238.993 75.9855 247.986 95.5108 256.704C105.249 261.052 114.265 265.313 121.081 268.575C123.064 269.524 124.85 270.384 126.418 271.138C127.553 271.684 128.574 272.175 129.472 272.605C131.565 273.607 133.009 274.288 133.528 274.481L133.877 273.544M140.649 284.178H141.765C140.498 281.586 136.886 274.676 133.877 273.544M140.649 284.178C140.619 284.117 140.588 284.054 140.555 283.99C140.069 283.024 139.385 281.725 138.589 280.387C137.79 279.045 136.892 277.686 135.981 276.587C135.043 275.456 134.196 274.732 133.524 274.48L133.877 273.544M140.649 284.178L40.5564 235.939C62.7015 239.376 109.039 261.667 126.856 270.239C130.7 272.088 133.217 273.299 133.877 273.544" fill="white" stroke="#00004E" stroke-width="2"/>
<path d="M202.018 150.745C198.664 151.167 194.698 150.4 195.177 148.196C195.637 145.992 199.814 146.222 202.248 147.506C204.681 148.79 203.876 150.515 202.018 150.764V150.745Z" fill="white" stroke="#00004E" stroke-width="2"/>
<path d="M200.619 154.923C197.265 155.345 193.299 154.578 193.778 152.374C194.257 150.17 198.415 150.4 200.849 151.684C203.282 152.968 202.477 154.693 200.619 154.942V154.923Z" fill="white" stroke="#00004E" stroke-width="2"/>
<rect x="160.97" y="12.2191" width="38.783" height="9.91287" rx="4.95644" fill="#00004E"/>
<g clip-path="url(#clip1_982_4721)">
<path d="M179.431 95.9084C180.125 96.6021 181.083 97 182.063 97H234.619C235.598 97 236.558 96.6021 237.251 95.9076C237.943 95.2139 238.341 94.2538 238.341 93.2725V62.4514H178.341V93.2733C178.341 94.2546 178.739 95.2147 179.431 95.9084ZM226.261 64.9516H234.848V72.6036H226.261V64.9516ZM226.261 74.7198H234.848V82.3718H226.261V74.7198ZM215.153 64.9516H223.743V72.6036H215.153V64.9516ZM215.153 74.7198H223.743V82.3718H215.153V74.7198ZM215.153 84.488H223.743V92.1392H215.153V84.488ZM204.046 64.9516H212.636V72.6036H204.046V64.9516ZM204.046 74.7198H212.636V82.3718H204.046V74.7198ZM204.046 84.488H212.636V92.1392H204.046V84.488ZM192.94 64.9516H201.53V72.6036H192.94V64.9516ZM192.94 74.7198H201.53V82.3718H192.94V74.7198ZM192.94 84.488H201.53V92.1392H192.94V84.488ZM181.834 74.7198H190.423V82.3718H181.834V74.7198ZM181.834 84.488H190.423V92.1392H181.834V84.488Z" fill="#BFEFBF"/>
<path d="M184.511 48.2921H182.063C181.083 48.2921 180.125 48.6892 179.431 49.3829C178.739 50.0766 178.341 51.0367 178.341 52.0172V60.2258H238.341V52.0172C238.341 51.0367 237.943 50.0766 237.25 49.3829C236.558 48.6892 235.599 48.2921 234.619 48.2921H228.307V53.1709C228.307 54.0811 227.569 54.819 226.66 54.819H223.191C222.282 54.819 221.547 54.0803 221.547 53.1709V48.2921H195.138V53.1709C195.138 54.0811 194.4 54.819 193.492 54.819H190.022C189.112 54.819 188.377 54.0803 188.377 53.1709V48.2921H184.511Z" fill="#BFEFBF"/>
<path d="M190.022 53.1701H193.492V48.2921V44H190.022V48.2921V53.1701Z" fill="#BFEFBF"/>
<path d="M223.191 53.1701H226.66V48.2921V44H223.191V48.2921V53.1701Z" fill="#BFEFBF"/>
<path d="M201.53 64.9516H192.94V72.6036H201.53V64.9516Z" fill="white"/>
<path d="M212.636 64.9516H204.046V72.6036H212.636V64.9516Z" fill="white"/>
<path d="M223.743 64.9516H215.153V72.6036H223.743V64.9516Z" fill="white"/>
<path d="M190.423 74.7198H181.834V82.3718H190.423V74.7198Z" fill="white"/>
<path d="M201.53 74.7198H192.94V82.3718H201.53V74.7198Z" fill="white"/>
<path d="M212.636 74.7198H204.046V82.3718H212.636V74.7198Z" fill="white"/>
<path d="M223.743 74.7198H215.153V82.3718H223.743V74.7198Z" fill="white"/>
<path d="M190.423 84.488H181.834V92.1392H190.423V84.488Z" fill="white"/>
<path d="M201.53 84.488H192.94V92.1392H201.53V84.488Z" fill="#00BF00"/>
<path d="M212.636 84.488H204.046V92.1392H212.636V84.488Z" fill="white"/>
<path d="M223.743 84.488H215.153V92.1392H223.743V84.488Z" fill="white"/>
</g>
<path d="M270.149 161.47C269.836 161.443 270.042 161.285 270.214 161.001C270.581 160.403 271.145 159.876 271.629 159.373C271.432 159.575 272.121 158.786 272.086 158.828C272.359 158.488 272.616 158.136 272.865 157.779C273.447 156.956 273.976 156.097 274.455 155.208C275.418 153.43 276.194 151.553 276.773 149.616C277.954 145.667 278.285 141.48 277.673 137.405C276.548 129.885 272.297 123.026 266.212 118.496L264.315 121.223L257.617 107.912L272.697 109.189L270.428 112.448C276.016 116.203 280.217 121.856 282.15 128.297C284.097 134.783 283.536 141.881 280.825 148.078C279.117 151.99 276.542 155.336 273.619 158.428C272.961 159.124 272.258 159.796 271.536 160.423C271.42 160.522 270.429 161.492 270.149 161.47Z" fill="#00BF00"/>
<path d="M207.52 202.331C207.583 202.024 207.717 202.245 207.98 202.448C208.533 202.88 208.992 203.498 209.437 204.035C209.259 203.816 209.965 204.588 209.927 204.549C210.234 204.858 210.555 205.152 210.881 205.44C211.634 206.109 212.428 206.73 213.257 207.305C214.917 208.461 216.697 209.442 218.559 210.235C222.356 211.853 226.488 212.655 230.618 212.51C238.24 212.247 245.567 208.813 250.786 203.298L248.29 201.11L262.328 195.983L259.304 210.777L256.321 208.16C251.931 213.27 245.812 216.792 239.171 217.977C232.483 219.171 225.478 217.811 219.621 214.424C215.921 212.289 212.888 209.358 210.147 206.113C209.53 205.383 208.943 204.609 208.402 203.823C208.317 203.697 207.466 202.605 207.52 202.331Z" fill="#00BF00"/>
<defs>
<clipPath id="clip0_982_4721">
<rect width="35.6122" height="45.4475" fill="white" transform="matrix(-0.379056 -0.925374 0.926375 -0.376601 90.362 59.3272)"/>
</clipPath>
<clipPath id="clip1_982_4721">
<rect width="60" height="53" fill="white" transform="translate(178.341 44)"/>
</clipPath>
</defs>
</svg>
