<svg width="310" height="217" viewBox="0 0 310 217" fill="none" xmlns="http://www.w3.org/2000/svg">
<rect x="1.17271" y="7.95786" width="175.006" height="115.953" rx="5.89615" fill="white" stroke="#00004E" stroke-width="1.31026"/>
<g clip-path="url(#clip0_538_3158)">
<path d="M88.6565 48.7019C85.6918 45.0918 85.2945 41.3506 85.4664 39.9312L81.3526 37.1613L75.0759 36.6438C72.6014 38.6524 68.148 44.169 70.1305 50.1663C72.6086 57.6628 76.7262 62.6769 80.2744 62.3149C83.8226 61.953 84.9311 54.7521 85.1543 54.2096C85.3775 53.667 85.4854 51.1517 86.232 50.8393C86.9786 50.5269 88.3601 50.1733 88.6565 48.7019Z" fill="white" stroke="#00004E" stroke-width="1.31037" stroke-linecap="round"/>
<path d="M74.9207 64.973L75.0161 59.4678L70.4546 54.6879L65.9233 62.2159L74.9207 64.973Z" fill="white" stroke="#00004E" stroke-width="1.31036"/>
<path d="M78.6881 43.9984C79.2823 41.9532 83.1664 41.3759 85.0341 41.3429L84.9187 39.37L81.9671 39.0332L75.4287 38.4007L71.7419 45.1085C71.1351 47.0842 70.491 52.0546 72.7691 56.1317C75.6167 61.228 79.1687 63.1101 81.7818 62.0167C83.8722 61.1419 85.7232 53.9391 85.6111 51.207L78.2569 54.0598C78.0914 51.9582 77.9461 47.0037 78.6881 43.9984Z" fill="#00004E"/>
<path d="M98.0805 97.6556C90.4041 78.1126 88.9705 67.1489 73.8316 63.8658C68.0502 61.5732 52.6892 58.3709 49.525 65.4816C36.796 94.087 40.1678 110.748 32.8019 123.806C26.8265 134.4 -2.04648 193.768 -5.91832 207.271L60.6668 227.675C64.3304 219.108 67.4138 155.426 81.8653 97.6556C86.341 105.902 91.099 109.402 96.1466 110.948C104.192 113.414 117.181 101.781 134.519 78.9968L128.348 73.8323C122.986 78.9857 112.186 87.6305 98.0805 97.6556Z" fill="white"/>
<path d="M75.6904 84.7516C77.3114 89.6241 80.2854 94.7446 81.8653 97.6556M81.8653 97.6556C86.341 105.902 91.099 109.402 96.1466 110.948C104.192 113.414 117.181 101.781 134.519 78.9968L128.348 73.8323C122.986 78.9857 112.186 87.6305 98.0805 97.6556C90.4041 78.1126 88.9705 67.1489 73.8316 63.8658C68.0502 61.5732 52.6892 58.3709 49.525 65.4816C36.796 94.087 40.1678 110.748 32.8019 123.806C26.8265 134.4 -2.04648 193.768 -5.91832 207.271L60.6668 227.675C64.3304 219.108 67.4138 155.426 81.8653 97.6556Z" stroke="#00004E" stroke-width="1.31036"/>
<path d="M80.6242 40.0448L85.2848 40.0865C85.9544 38.4589 84.2229 30.6499 78.4311 29.705C72.6394 28.76 69.2451 31.7524 68.7987 32.8374C68.3522 33.9225 62.9565 46.2859 59.0811 51.9499C55.2057 57.6138 37.9285 89.7398 49.4785 94.8184C62.3126 99.5335 71.1919 66.8956 74.9115 45.2212C75.2998 42.9583 78.4229 41.6397 80.6242 40.0448Z" fill="white" stroke="#00004E" stroke-width="1.31037"/>
<path d="M85.3613 36.041C79.7441 35.1728 69.9157 34.375 67.6128 33.3624" stroke="#00004E" stroke-width="1.96556" stroke-linecap="round"/>
<ellipse cx="0.73981" cy="1.50698" rx="0.73981" ry="1.50698" transform="matrix(0.978722 -0.166656 0.156037 0.994707 82.4453 43.1299)" fill="#00004E"/>
<path d="M105.426 123.958L78.9785 110.287L75.7461 123.958L90.1452 123.958L105.426 123.958Z" stroke="#00004E" stroke-width="1.31044"/>
<path d="M78.6849 65.9336C74.8649 78.8953 64.2861 106.642 40.7773 113.933" stroke="#00004E" stroke-width="1.31044"/>
<rect width="25.716" height="33.0118" rx="3.93115" transform="matrix(0.903427 0.434956 -0.409688 0.909435 31.8359 99.832)" fill="#00004E"/>
<path d="M41.0715 91.1484L36.0762 102.085" stroke="#00004E" stroke-width="1.31044"/>
<path d="M135.958 75.3793C135.927 69.6547 137.937 59.3935 146.214 64.1466" stroke="#00BF00" stroke-width="1.96544"/>
<path d="M156.773 76.9597C155.771 79.4812 153.155 79.9083 151.972 79.8066C151.888 80.1978 151.684 81.3029 151.538 82.5941C155.369 83.3036 158.996 81.3337 159.756 76.4555C160.516 71.5774 161.725 70.9208 163.469 69.4952C163.351 69.2135 163.081 68.4298 162.942 67.5486C159.176 68.6374 158.025 73.8079 156.773 76.9597Z" fill="#00BF00"/>
<path d="M147.089 62.7646L135.158 75.8635L151.177 84.4651L154.213 66.3103L147.089 62.7646Z" fill="#00BF00"/>
<path d="M137.417 73.5388L139.838 70.8678L152.386 76.8895L151.7 80.8505L137.417 73.5388Z" fill="#81E791"/>
<path d="M144.715 65.2477L145.974 64.0467L154.163 67.6592L153.662 69.2259L144.715 65.2477Z" fill="#81E791"/>
<ellipse cx="1.29665" cy="1.33815" rx="1.29665" ry="1.33815" transform="matrix(0.986019 -0.166639 0.156191 0.987727 149.895 62.5166)" fill="#2E562E"/>
<path d="M133.893 67.4495L129.281 74.2404L131.875 76.5666C132.636 75.7612 133.937 74.5904 135.518 74.1879C137.495 73.6847 137.231 71.9544 137.538 70.0413C137.846 68.1282 140.305 67.9888 142.457 66.3925C141.579 65.1183 136.382 66.5663 133.893 67.4495Z" fill="white" stroke="#00004E" stroke-width="1.31029"/>
</g>
<rect x="133.409" y="94.8417" width="175.006" height="115.953" rx="5.89615" fill="white" stroke="#00004E" stroke-width="1.31026"/>
<rect x="0.517578" y="18.2393" width="176.316" height="1.21517" fill="#00004E"/>
<rect x="132.754" y="105.731" width="176.316" height="1.21517" fill="#00004E"/>
<path d="M9.26716 13.6824C9.26716 14.8513 8.35602 15.7614 7.27755 15.7614C6.19907 15.7614 5.28794 14.8513 5.28794 13.6824C5.28794 12.5135 6.19907 11.6034 7.27755 11.6034C8.35602 11.6034 9.26716 12.5135 9.26716 13.6824Z" stroke="#00004E" stroke-width="1.31026"/>
<path d="M142.089 100.566C142.089 101.735 141.178 102.645 140.1 102.645C139.021 102.645 138.11 101.735 138.11 100.566C138.11 99.3973 139.021 98.4872 140.1 98.4872C141.178 98.4872 142.089 99.3973 142.089 100.566Z" stroke="#00004E" stroke-width="1.31026"/>
<path d="M16.9058 13.6824C16.9058 14.8513 15.9947 15.7614 14.9162 15.7614C13.8377 15.7614 12.9266 14.8513 12.9266 13.6824C12.9266 12.5135 13.8377 11.6034 14.9162 11.6034C15.9947 11.6034 16.9058 12.5135 16.9058 13.6824Z" stroke="#00004E" stroke-width="1.31026"/>
<path d="M149.73 100.566C149.73 101.735 148.819 102.645 147.74 102.645C146.662 102.645 145.751 101.735 145.751 100.566C145.751 99.3973 146.662 98.4872 147.74 98.4872C148.819 98.4872 149.73 99.3973 149.73 100.566Z" stroke="#00004E" stroke-width="1.31026"/>
<path d="M24.5465 13.6824C24.5465 14.8513 23.6353 15.7614 22.5568 15.7614C21.4784 15.7614 20.5672 14.8513 20.5672 13.6824C20.5672 12.5135 21.4784 11.6034 22.5568 11.6034C23.6353 11.6034 24.5465 12.5135 24.5465 13.6824Z" stroke="#00004E" stroke-width="1.31026"/>
<path d="M157.373 100.566C157.373 101.735 156.461 102.645 155.383 102.645C154.305 102.645 153.393 101.735 153.393 100.566C153.393 99.3973 154.305 98.4872 155.383 98.4872C156.461 98.4872 157.373 99.3973 157.373 100.566Z" stroke="#00004E" stroke-width="1.31026"/>
<path d="M194.967 101.806C195.149 101.261 195.026 100.712 194.782 100.228L194.096 98.864C191.415 100.306 190.535 104.414 190.553 107.48C188.135 105.705 184.375 104.093 181.695 105.534L182.382 106.898C182.648 107.426 183.069 107.759 183.606 107.917L192.409 111.066L194.967 101.806Z" fill="#00BF00"/>
<path d="M189.079 100.639C189.14 100.46 189.099 100.279 189.019 100.12L188.793 99.6716C187.912 100.146 187.622 101.497 187.628 102.505C186.833 101.921 185.596 101.391 184.715 101.865L184.941 102.314C185.028 102.488 185.167 102.597 185.343 102.649L188.238 103.685L189.079 100.639Z" fill="#00BF00"/>
<path d="M196.357 110.296C196.513 109.977 196.482 109.63 196.372 109.312L196.061 108.415C194.299 109.067 193.425 111.513 193.187 113.396C191.847 112.097 189.67 110.781 187.908 111.434L188.219 112.33C188.339 112.678 188.571 112.918 188.888 113.062L194.036 115.759L196.357 110.296Z" fill="#00BF00"/>
<path d="M194.367 117.784C194.286 115.597 192.71 109.346 187.055 101.841" stroke="#007300" stroke-width="1.21255" stroke-linecap="round" stroke-linejoin="round"/>
<path d="M183.344 98.9508C184.293 100.454 186.627 102.057 187.676 102.67C187.883 101.497 188.104 98.693 187.332 96.8673C186.366 94.5851 183.752 93.5065 182.987 94.3265C182.222 95.1465 182.158 97.0713 183.344 98.9508Z" fill="#00BF00"/>
<path d="M193.893 128.156C201.043 163.549 228.364 168.853 241.823 166.012L244.749 149.13C203.139 152.734 201.598 132.088 199.441 127.828C198.208 127.828 195.742 128.156 193.893 128.156Z" fill="white"/>
<path d="M189.711 124.256C189.402 123.326 188.945 121.251 189.586 120.393C190.051 119.654 190.872 119.936 190.612 120.745C190.351 121.555 190.306 123.112 190.652 123.455C190.928 123.73 191.234 124.479 191.352 124.82" stroke="#00004E" stroke-width="1.21243"/>
<path d="M194.082 127.828L193.77 126.971C192.273 127.2 190.859 127.257 190.339 127.257C189.715 126.971 188.156 126.114 187.844 124.686C187.594 124.001 187.532 123.544 187.532 123.258C187.22 122.401 188.369 121.769 188.468 122.401C188.78 124.401 189.404 124.972 190.339 124.972C191.221 124.972 191.587 124.401 193.458 124.115C195.33 123.829 197.201 123.544 198.449 124.115C199.696 124.686 198.137 126.114 198.137 127.543" stroke="#00004E" stroke-width="1.21231"/>
<path d="M241.823 166.029C228.364 168.853 201.043 163.344 193.893 128.154C195.742 128.154 198.208 127.828 199.441 127.828C201.598 132.064 203.139 152.592 244.749 149.008" stroke="#00004E" stroke-width="1.21231"/>
<path d="M190.638 124.039L189.311 116.935H198.932L197.605 124.039H190.638Z" fill="#00BF00"/>
<path d="M237.106 155.554C237.696 151.607 239.287 150.736 239.529 151.119H260.983C279.796 159.854 288.238 184.129 289.926 191.832C290.408 193.489 291.663 197.746 292.82 201.523C293.303 205.996 288.72 210.717 285.102 210.717H231.8C232.523 205.747 230.835 204.008 229.629 202.268C233.006 201.109 240.241 198.641 242.171 198.044C240.627 194.466 240.285 189.596 240.307 187.608C234.571 178.164 234.57 175.026 235.901 167.978C236.651 164.002 236.624 158.784 237.106 155.554Z" fill="white"/>
<path d="M257.802 149.971C263.113 149.472 291.78 175.941 291.78 210.878L277.056 210.878" stroke="#00004E" stroke-width="1.21231"/>
<path d="M239.439 151.12C239.2 150.735 237.622 151.609 237.038 155.571C236.56 158.814 236.587 164.053 235.843 168.044C234.169 177.025 234.621 179.682 246.121 196.981" stroke="#00004E" stroke-width="1.21231"/>
<path d="M242.056 151.125C240.77 149.965 240.227 152.214 239.411 157.273C239.109 159.147 239.139 161.77 238.323 167.111C236.809 177.03 236.875 179.273 248.655 196.625" stroke="#00004E" stroke-width="1.21231"/>
<path d="M247.963 130.67C247.912 131.544 248.085 133.454 249.181 134.099C250.278 134.744 250.653 138.392 250.704 139.669" stroke="#00004E" stroke-width="1.21231"/>
<path d="M237.418 141.479C237.79 148.539 243.782 148.67 246.73 147.853C247.895 147.612 251.62 143.931 253.948 138.782C256.043 133.389 249.757 130.202 247.895 130.202C241.609 129.957 237.418 137.312 237.418 141.479Z" stroke="#00004E" stroke-width="1.21231"/>
<path d="M237.236 139.393C237.666 147.553 244.585 147.704 247.99 146.759C249.335 146.481 253.636 142.226 256.325 136.277C258.745 130.044 251.486 126.361 249.335 126.361C242.076 126.078 237.236 134.577 237.236 139.393Z" fill="white" stroke="#00004E" stroke-width="1.21231"/>
<ellipse cx="0.805969" cy="1.258" rx="0.805969" ry="1.258" transform="matrix(0.6633 0.748353 -0.727693 0.685902 248.014 131.25)" fill="#00004E"/>
<ellipse cx="0.672411" cy="1.04953" rx="0.672411" ry="1.04953" transform="matrix(0.6633 0.748353 -0.727693 0.685902 243.01 128.498)" fill="#00004E"/>
<path d="M221.469 207.306L230.985 205.058C232.725 205.282 232.254 208.899 231.801 210.679C229.716 210.679 225.112 210.735 223.372 210.96C222.284 211.804 219.022 212.085 217.934 211.523C217.571 211.71 216.792 212.253 216.575 212.928C216.303 213.49 215.704 214.952 215.487 216.301C213.964 216.076 214.309 213.022 214.671 211.523C214.309 212.553 213.366 214.895 212.496 216.02C211.409 217.425 211.952 212.647 211.952 211.523C212.822 205.676 218.659 206.276 221.469 207.306Z" fill="white"/>
<path d="M263.152 159.089C267.941 161.367 272.88 167.28 279.341 176.712C288.182 189.619 287.813 200.087 287.813 202.365C287.813 204.643 285.603 210.716 279.341 210.716C267.847 210.716 244.241 210.716 231.839 210.716C232.208 209.071 232.281 205.098 229.629 202.365C238.47 199.024 257.38 193.381 265.73 190.977C264.502 184.017 260.794 169.187 255.784 165.542" stroke="#00004E" stroke-width="1.21231" stroke-linecap="round"/>
<path d="M247.836 154.353C248.854 154.608 246.238 154.979 244.783 162.774C242.685 174.009 249.363 183.062 250.89 184.593C252.416 186.124 257.019 189.837 256.637 193.665" stroke="#00004E" stroke-width="1.21231"/>
<path d="M250.4 154.463C247.416 159 243.685 170.854 252.638 181.975C255.996 186.319 258.989 188.474 259.261 192.69" stroke="#00004E" stroke-width="1.21231"/>
<path d="M231.003 205.033L221.516 207.265C215.512 205.405 212.135 208.381 211.76 211.357C211.76 212.845 211.866 212.341 212.241 213.085" stroke="#00004E" stroke-width="1.21231"/>
<path d="M214.298 209.296C213.77 209.95 212.555 210.237 211.922 214.004C211.13 218.712 213.135 215.216 213.506 214.071C214.628 210.61 215.487 211.258 215.884 210.865" stroke="#00004E" stroke-width="1.21231"/>
<path d="M214.051 212.784C214.051 213.362 214.273 216.401 215.162 216.401C215.533 216.401 215.903 216.401 215.903 214.665C215.903 212.93 217.755 211.194 218.126 211.628C218.496 212.062 221.83 212.062 222.941 211.194C224.423 210.847 228.374 210.616 231.461 210.761" stroke="#00004E" stroke-width="1.21231"/>
<path d="M239.53 147.421C236.591 144.805 237.163 143.367 237.571 141.354C240.264 151.165 248.278 144.316 249.816 142.391C257.653 132.58 251.53 128.053 249.816 127.047C248.966 126.547 246.408 126.04 244.449 127.047C249.816 121.553 257.532 127.047 258.68 128.887C259.509 130.217 260.354 131.601 260.837 133.587C261.893 137.932 260.088 139.385 259.598 139.888C259.108 140.391 258.68 145.51 259.857 148.931C261.905 154.88 254.469 155.219 253 154.968C251.531 154.716 251.041 153.71 246.387 154.716C241.734 155.722 239.53 152.452 237.571 149.685C237.652 149.098 238.158 147.824 239.53 147.421Z" fill="#00004E" stroke="#00004E" stroke-width="1.21231"/>
<path d="M240.186 138.433C239.859 137.253 242.716 134.829 243.749 134.098L241.979 139.179C241.436 139.34 240.163 138.987 240.186 138.433Z" fill="white"/>
<path d="M244.822 131.25C243.648 132.08 240.619 133.632 240.99 134.973C240.964 135.603 242.411 136.004 243.029 135.821" stroke="#00004E" stroke-width="1.2124" stroke-linecap="round"/>
<defs>
<clipPath id="clip0_538_3158">
<rect width="173.377" height="123.339" fill="white" transform="translate(1.69336 0.0117188)"/>
</clipPath>
</defs>
</svg>
