<svg width="90" height="65" viewBox="0 0 90 65" fill="none" xmlns="http://www.w3.org/2000/svg">
<path d="M77.0062 41.1327L76.2483 41.1211C75.8896 41.1211 75.69 40.9853 75.69 40.8148C75.69 40.6241 75.9214 40.4883 76.1528 40.4883C76.4045 40.4883 76.552 40.6155 76.6359 40.6877L76.9107 40.234C76.795 40.0231 76.5 39.8237 76.1528 39.8237C75.5627 39.8237 75.2358 40.2774 75.2358 40.7281C75.2358 40.9391 75.2994 41.0749 75.3718 41.1587H75.0564V41.7366H77.0062V41.1269V41.1327ZM80.0842 44.4355C80.3677 44.4355 80.5991 44.1928 80.5991 43.9096C80.5991 43.6264 80.3677 43.3837 80.0842 43.3837C79.7775 43.3837 79.5461 43.6264 79.5461 43.9096C79.5461 44.1928 79.7775 44.4355 80.0842 44.4355ZM54.8963 43.9298C54.8963 44.2246 55.1278 44.4557 55.4344 44.4557C55.7179 44.4557 55.9493 44.213 55.9493 43.9298C55.9493 43.6466 55.7179 43.4039 55.4344 43.4039C55.1278 43.4039 54.8963 43.6466 54.8963 43.9298ZM47.4907 49.108V41.647H46.5853V49.108H47.4907ZM36.7352 49.0329C36.3967 49.0329 36.1566 49.2958 36.1566 49.6108C36.1566 49.9257 36.3996 50.1887 36.7352 50.1887C37.0708 50.1887 37.3051 49.9142 37.3051 49.6108C37.3051 49.3074 37.0621 49.0329 36.7352 49.0329ZM53.5165 43.9298C53.5165 44.213 53.7595 44.4557 54.0545 44.4557C54.3496 44.4557 54.5695 44.2246 54.5695 43.9298C54.5695 43.6351 54.3496 43.4039 54.0545 43.4039C53.7595 43.4039 53.5165 43.6466 53.5165 43.9298ZM85.6239 41.647H84.7185V49.108H85.6239V41.647ZM11.8135 48.0648C12.0247 48.7815 12.6669 49.1051 13.5521 49.1051H18.9038V47.9695H16.7458C15.9358 47.9695 15.0911 47.5158 15.0911 46.6114C15.0911 45.9179 15.661 45.3371 16.4912 45.3371C17.1971 45.3371 17.7236 45.7589 17.9666 46.0219L18.493 45.2648C18.3021 44.9499 17.6715 44.2015 16.5751 44.2015C15.1229 44.2015 14.2464 45.3689 14.2464 46.5478C14.2464 47.1777 14.4662 47.6516 14.8481 47.9695H13.5955C12.7537 47.9695 12.3516 47.8106 12.3516 46.8108V45.3284H11.9726C11.6949 45.3284 11.4693 45.5538 11.4693 45.8312V46.831C11.4577 47.8192 10.9833 47.9666 10.2254 47.9666C9.49926 47.9666 9.00459 47.8192 9.00459 46.8397V43.1583H8.13095V43.9067C5.59105 44.3806 4.67692 45.3689 4.67692 46.62C4.67692 47.7354 5.45509 48.4521 6.60354 48.4521C7.49742 48.4521 7.98342 48.062 8.21484 47.5476C8.37395 48.5474 8.93227 49.0935 10.1849 49.1051C11.0267 49.1051 11.6168 48.7063 11.8164 48.0648H11.8135ZM6.71347 47.3078C6.00762 47.3078 5.48113 47.0448 5.48113 46.4871C5.48113 45.8976 6.1349 45.2764 8.12517 44.9181V46.5796L8.13674 46.7385C7.97763 47.0217 7.51478 47.3078 6.71347 47.3078ZM12.0652 50.4025C12.0652 50.6973 12.2966 50.9284 12.6033 50.9284C12.8868 50.9284 13.1182 50.6857 13.1182 50.4025C13.1182 50.1194 12.8868 49.8766 12.6033 49.8766C12.2966 49.8766 12.0652 50.1194 12.0652 50.4025ZM7.11557 41.9851C7.11557 42.2799 7.347 42.511 7.65364 42.511C7.93713 42.511 8.16856 42.2683 8.16856 41.9851C8.16856 41.7019 7.93713 41.4592 7.65364 41.4592C7.347 41.4592 7.11557 41.7019 7.11557 41.9851ZM6.27087 41.4592C5.9758 41.4592 5.7328 41.7019 5.7328 41.9851C5.7328 42.2683 5.9758 42.511 6.27087 42.511C6.56593 42.511 6.78579 42.2799 6.78579 41.9851C6.78579 41.6904 6.56593 41.4592 6.27087 41.4592ZM10.6853 50.4025C10.6853 50.6857 10.9283 50.9284 11.2234 50.9284C11.5185 50.9284 11.7383 50.6973 11.7383 50.4025C11.7383 50.1078 11.5185 49.8766 11.2234 49.8766C10.9283 49.8766 10.6853 50.1194 10.6853 50.4025ZM8.33634 29.4905C9.71333 30.2707 11.2639 30.6608 12.988 30.6608C14.177 30.6608 15.2907 30.4325 16.3292 29.9788C17.3677 29.5252 18.1777 28.9126 18.7592 28.1439V29.9615C18.7592 31.337 18.3224 32.4292 17.4487 33.247C16.5751 34.0618 15.3804 34.4693 13.8645 34.4693C12.6987 34.4693 11.747 34.2526 11.0151 33.822C10.3845 33.4521 9.92161 32.9465 9.62654 32.3107H4.93728C5.17449 33.4319 5.64891 34.4086 6.36055 35.2379C7.14161 36.1452 8.16856 36.8445 9.43851 37.3329C10.7085 37.8212 12.1375 38.0668 13.7228 38.0668C15.6349 38.0668 17.3186 37.7345 18.7765 37.0699C20.2345 36.4053 21.3714 35.4517 22.1872 34.2063C23.003 32.9609 23.4108 31.4757 23.4108 29.7506V12.072H20.5441C19.5576 12.072 18.7592 12.8695 18.7592 13.8549V14.167C18.1286 13.4446 17.307 12.8695 16.2945 12.4361C15.2791 12.0055 14.1538 11.7888 12.9186 11.7888C11.1916 11.7888 9.65258 12.1847 8.30163 12.9764C6.94779 13.7682 5.8948 14.8807 5.13688 16.3139C4.37896 17.7472 4 19.4174 4 21.3274C4 23.2374 4.37896 24.8209 5.13688 26.2195C5.8948 27.618 6.96225 28.7074 8.33634 29.4876V29.4905ZM9.29965 18.3973C9.73068 17.5593 10.3324 16.9063 11.1019 16.4411C11.8714 15.9758 12.745 15.7418 13.7257 15.7418C14.7063 15.7418 15.5453 15.9758 16.3148 16.4411C17.0842 16.9063 17.6831 17.5593 18.117 18.3973C18.548 19.2353 18.765 20.1802 18.765 21.2262C18.765 22.2723 18.5538 23.1825 18.1343 24.0205C17.7149 24.8585 17.1132 25.5115 16.3321 25.9767C15.551 26.442 14.6832 26.676 13.7257 26.676C12.7682 26.676 11.8714 26.4478 11.1019 25.9941C10.3324 25.5404 9.73068 24.8874 9.29965 24.0378C8.86862 23.1883 8.65166 22.2376 8.65166 21.1916C8.65166 20.1455 8.86573 19.2353 9.29965 18.3973ZM31.6149 43.9096C31.6149 43.6264 31.3835 43.3837 31.1 43.3837C30.7933 43.3837 30.5619 43.6264 30.5619 43.9096C30.5619 44.1928 30.7933 44.4355 31.1 44.4355C31.3835 44.4355 31.6149 44.1928 31.6149 43.9096ZM66.3895 10.5232C67.8996 10.5232 69.1233 9.30087 69.1233 7.7925C69.1233 6.28413 67.8996 5.06183 66.3895 5.06183C64.8795 5.06183 63.6558 6.28413 63.6558 7.7925C63.6558 9.30087 64.8795 10.5232 66.3895 10.5232ZM64.0608 15.0483V31.4323H68.7125V12.0749H67.0346C65.3915 12.0749 64.0579 13.407 64.0579 15.0483H64.0608ZM55.6224 49.108C58.0669 49.108 58.9405 48.14 58.9405 46.4785C58.9405 45.678 58.7612 44.8689 58.6021 44.2477L57.7371 44.4673C57.9049 45.1521 58.064 45.889 58.064 46.594C58.064 47.5187 57.3147 47.9724 55.5993 47.9724H53.6727C52.1019 47.9724 51.3237 47.4869 51.3237 46.4033C51.3237 45.9208 51.451 45.4555 51.6709 44.8776L50.9129 44.6031C50.6179 45.2648 50.4588 46.0132 50.4588 46.6229C50.4588 48.2527 51.3555 49.1051 53.6293 49.1051H55.6196L55.6224 49.108ZM76.4913 46.9292V42.3405H75.5858V47.2644C75.5858 48.5792 76.4913 49.1051 77.6513 49.1051H77.6571H77.6629C78.5047 49.1051 79.0948 48.7063 79.2944 48.0648C79.5056 48.7815 80.1478 49.1051 81.033 49.1051C82.2538 49.1051 83.1911 48.4521 83.1911 46.8541V41.647H82.2856V46.961C82.2856 47.8134 81.8112 47.9724 81.0735 47.9724C80.2317 47.9724 79.8296 47.8134 79.8296 46.8136V45.3313H79.4506C79.1729 45.3313 78.9473 45.5567 78.9473 45.8341V46.8339C78.9357 47.8221 78.4613 47.9695 77.7034 47.9695C76.9975 47.9695 76.4913 47.8106 76.4913 46.9292ZM78.7043 44.4355C79.0109 44.4355 79.2192 44.2043 79.2192 43.9096C79.2192 43.6149 78.9994 43.3837 78.7043 43.3837C78.4092 43.3837 78.1662 43.6264 78.1662 43.9096C78.1662 44.1928 78.4092 44.4355 78.7043 44.4355ZM66.5689 50.9284C66.8755 50.9284 67.0838 50.6973 67.0838 50.4025C67.0838 50.1078 66.864 49.8766 66.5689 49.8766C66.2738 49.8766 66.0308 50.1194 66.0308 50.4025C66.0308 50.6857 66.2738 50.9284 66.5689 50.9284ZM63.8815 44.4355C64.2083 44.4355 64.4513 44.161 64.4513 43.8576C64.4513 43.5542 64.2083 43.2797 63.8815 43.2797C63.5546 43.2797 63.3029 43.5426 63.3029 43.8576C63.3029 44.1726 63.5459 44.4355 63.8815 44.4355ZM56.7969 27.3609C56.2589 27.7683 55.527 27.9735 54.5926 27.9735C53.5425 27.9735 52.6978 27.7163 52.0556 27.2048C51.4134 26.6934 51.0691 25.9825 51.0229 25.0723H46.5101C46.5795 26.4015 46.9642 27.5602 47.6643 28.5485C48.3644 29.5396 49.3074 30.314 50.4964 30.8717C51.6853 31.4323 53.0507 31.7097 54.5897 31.7097C56.0361 31.7097 57.3292 31.4525 58.4719 30.9411C59.6145 30.4296 60.4998 29.7246 61.1304 28.8259C61.761 27.9301 62.0734 26.8639 62.0734 25.6271C62.0734 24.1823 61.7408 23.0525 61.0754 22.2376C60.4101 21.4227 59.6174 20.8333 58.6975 20.4721C57.7747 20.1109 56.6031 19.767 55.1827 19.4405C54.2975 19.2555 53.609 19.0735 53.1202 18.9001C52.6313 18.7267 52.2292 18.5042 51.9138 18.2355C51.5985 17.9668 51.4423 17.5998 51.4423 17.1346C51.4423 16.6 51.6737 16.1608 52.1424 15.8227C52.6081 15.4846 53.2272 15.317 53.9967 15.317C54.905 15.317 55.6572 15.5453 56.2531 15.999C56.849 16.4526 57.2019 17.0537 57.3205 17.7992H61.7292C61.6366 16.5653 61.2635 15.4991 60.6097 14.6004C59.9559 13.7046 59.0591 13.0111 57.9165 12.5199C56.7738 12.0315 55.4344 11.7859 53.8925 11.7859C52.5647 11.7859 51.3671 12.0258 50.3083 12.5025C49.2467 12.9793 48.4367 13.6439 47.8784 14.4935C47.32 15.343 47.0394 16.2937 47.0394 17.3426C47.0394 18.6487 47.3548 19.6832 47.9825 20.4518C48.6131 21.2205 49.3595 21.7753 50.2215 22.1105C51.0836 22.4485 52.2147 22.7808 53.6148 23.1074C54.5232 23.3645 55.2406 23.5784 55.7671 23.7546C56.2907 23.928 56.7304 24.1736 57.0775 24.4886C57.4276 24.8036 57.6011 25.2168 57.6011 25.7282C57.6011 26.4044 57.3321 26.9448 56.7969 27.3522V27.3609ZM72.5628 44.814C71.3941 44.814 70.5292 45.6347 70.1618 47.1922C69.9506 47.8655 69.4241 47.9695 68.941 47.9695C68.0992 47.9695 67.6971 47.8106 67.6971 46.8108V45.3284H67.3181C67.0404 45.3284 66.8148 45.5538 66.8148 45.8312V46.831C66.8032 47.8192 66.3288 47.9666 65.5709 47.9666C64.7291 47.9666 64.327 47.8077 64.327 46.8079V45.3255H63.948C63.6703 45.3255 63.4446 45.5509 63.4446 45.8283V46.8281C63.4331 47.8134 62.9644 47.9637 62.2123 47.9637C61.4717 47.9753 60.9597 47.8106 60.9597 46.9235V41.6413H60.0543V47.2818C60.0543 48.5532 60.9076 49.1022 62.1168 49.1022C62.9818 49.1167 63.5893 48.7121 63.7947 48.0591C64.0059 48.7757 64.6481 49.1022 65.5333 49.1022C66.3751 49.1022 66.9652 48.7034 67.1648 48.062C67.376 48.7786 68.0182 49.1022 68.9034 49.1022C69.6093 49.1022 70.1994 48.7757 70.4424 48.1862C70.5697 48.4665 70.8358 48.741 71.2263 48.9259C71.5127 49.0589 71.8657 49.1456 72.2851 49.1456C73.665 49.1456 74.5184 48.3047 74.5184 47.0506C74.5184 45.7965 73.7171 44.8083 72.5686 44.8083L72.5628 44.814ZM72.3922 48.0244C71.5272 48.0244 71.0643 47.7094 70.8763 47.3945C71.1193 46.5016 71.6661 45.941 72.4471 45.941C73.1645 45.941 73.6997 46.4785 73.6997 47.1604C73.6997 47.6747 73.2253 48.0244 72.3922 48.0244ZM36.9666 45.5307C36.0091 45.0048 35.419 44.5309 34.3862 44.5309C33.4171 44.5309 32.6795 45.025 32.4365 45.3631L32.8154 46.1115C33.0989 45.9208 33.5849 45.6491 34.2908 45.6491C35.0603 45.6491 35.6591 45.9872 36.5674 46.4178C36.6831 46.4813 36.7988 46.5449 36.9146 46.5969C35.824 47.2153 34.9445 47.5592 34.1866 47.747C33.3853 47.9464 32.7229 47.9753 32.0893 47.9753C31.2446 47.9753 30.8454 47.8163 30.8454 46.8165V45.3342H30.4664C30.1887 45.3342 29.9631 45.5596 29.9631 45.837V46.8368C29.9631 46.8859 29.9631 46.935 29.9573 46.9784C29.9023 47.8366 29.4424 47.9724 28.725 47.9724C28.0394 47.9753 27.7298 47.7383 27.5071 46.8888C27.1281 45.5104 26.4339 44.8169 25.4098 44.8169C24.0733 44.8169 23.1245 45.9439 23.1245 47.2991C23.1245 47.3945 23.1245 47.4783 23.136 47.5621C22.9191 47.8655 22.4823 47.9782 21.9471 47.9724C21.2297 47.9753 20.7321 47.8019 20.7321 46.9321V41.6499H19.8266V47.2904C19.8266 48.5705 20.6887 49.1167 21.9066 49.1109C22.5633 49.1195 23.1389 48.8566 23.4282 48.3856C23.7667 48.871 24.3539 49.1542 25.1668 49.1542C26.1359 49.1542 26.7897 48.6803 27.0616 48.1862C27.3248 48.7959 27.915 49.1138 28.6555 49.1109C29.399 49.1167 29.9486 48.8133 30.209 48.3076C30.2466 48.2324 30.2813 48.1544 30.3073 48.0706C30.5185 48.7872 31.1607 49.1109 32.0459 49.1109C33.8163 49.1109 35.2049 48.7526 37.5539 47.1113H39.3879L39.4631 45.9323H38.3262C37.7159 45.9323 37.5249 45.8485 36.9666 45.5336V45.5307ZM25.2536 48.0244C24.4002 48.0244 23.9373 47.6776 23.9373 47.1835C23.9373 46.4785 24.5159 45.9525 25.2738 45.9525C26.0317 45.9525 26.5177 46.5218 26.7376 47.4031C26.5467 47.7094 26.0954 48.0244 25.2536 48.0244ZM67.9488 49.8766C67.6421 49.8766 67.4107 50.1194 67.4107 50.4025C67.4107 50.6857 67.6421 50.9284 67.9488 50.9284C68.2323 50.9284 68.4637 50.6857 68.4637 50.4025C68.4637 50.1194 68.2323 49.8766 67.9488 49.8766ZM30.235 43.9096C30.235 43.6264 30.0152 43.3837 29.7201 43.3837C29.425 43.3837 29.182 43.6264 29.182 43.9096C29.182 44.1928 29.425 44.4355 29.7201 44.4355C30.0152 44.4355 30.235 44.2043 30.235 43.9096ZM40.7013 13.0689C39.1739 12.2194 37.4295 11.7946 35.471 11.7946C33.5126 11.7946 31.7682 12.2194 30.2408 13.0689C28.7134 13.9185 27.5187 15.1003 26.6566 16.6144C25.7945 18.1286 25.3635 19.8421 25.3635 21.7522C25.3635 23.6622 25.7945 25.3757 26.6566 26.8899C27.5187 28.404 28.7163 29.5859 30.2408 30.4354C31.7682 31.2849 33.5126 31.7097 35.471 31.7097C37.4295 31.7097 39.1739 31.2849 40.7013 30.4354C42.2287 29.5859 43.4234 28.404 44.2855 26.8899C45.1475 25.3757 45.5786 23.6622 45.5786 21.7522C45.5786 19.8421 45.1475 18.1286 44.2855 16.6144C43.4234 15.1003 42.2258 13.9185 40.7013 13.0689ZM40.195 24.8816C39.7293 25.7774 39.0928 26.4766 38.2886 26.9765C37.4844 27.4764 36.5211 27.7278 35.4739 27.7278C34.4267 27.7278 33.4634 27.4764 32.6592 26.9765C31.855 26.4766 31.2186 25.7774 30.7528 24.8816C30.2871 23.9858 30.0528 22.9398 30.0528 21.7522C30.0528 20.5645 30.2871 19.5214 30.7528 18.6227C31.2186 17.7269 31.855 17.0277 32.6592 16.5278C33.4634 16.0279 34.4267 15.7765 35.4739 15.7765C36.5211 15.7765 37.4844 16.0279 38.2886 16.5278C39.0928 17.0277 39.7293 17.7269 40.195 18.6227C40.6608 19.5185 40.8951 20.5645 40.8951 21.7522C40.8951 22.9398 40.6608 23.9829 40.195 24.8816ZM44.3723 45.7618C44.9942 45.1926 45.1215 44.6782 45.1215 43.7536V41.6499H44.216V44.2159C44.1842 44.6464 44.0801 44.9325 43.7619 45.2677C42.9606 44.658 41.7282 43.8056 40.2442 42.7306L39.7293 43.5946C41.2133 44.5944 42.2142 45.2995 43.0271 45.8976L40.3397 48.0244V49.108H43.1197C44.4677 49.108 45.2893 48.5503 45.2893 47.3713C45.2893 46.7934 44.9219 46.256 44.3723 45.7618ZM43.1833 47.9724H41.4968L43.6346 46.3513C44.1293 46.7096 44.4764 47.0246 44.4764 47.4147C44.4764 47.8684 43.9181 47.9724 43.1804 47.9724H43.1833ZM22.9972 52.2403C22.6327 52.2403 22.3289 52.5148 22.3289 52.8991C22.3289 53.2835 22.6414 53.5666 22.9972 53.5666C23.3704 53.5666 23.677 53.2719 23.677 52.8991C23.677 52.5264 23.3646 52.2403 22.9972 52.2403ZM19.6357 55.2744C20.2953 55.2744 20.6598 55.468 21.0532 55.731L21.3483 54.8901C20.8912 54.5375 20.3242 54.3844 19.5952 54.3844C18.1777 54.3844 16.8615 55.3755 16.8615 57.2162C16.8615 59.0569 18.1372 59.9382 19.5663 59.9382C20.3358 59.9382 20.9143 59.7562 21.3193 59.4643L21.1053 58.6754C20.6193 58.9673 20.194 59.0598 19.6155 59.0598C18.7042 59.0598 17.9232 58.3605 17.9232 57.1786C17.9232 55.9968 18.7332 55.2773 19.6357 55.2773V55.2744ZM13.0545 54.3844C11.6371 54.3844 10.2398 55.3466 10.2398 57.1873C10.2398 59.028 11.5966 59.9382 13.0343 59.9382C14.472 59.9382 15.93 58.976 15.93 57.1353C15.93 55.2946 14.4518 54.3844 13.0545 54.3844ZM13.0632 59.0569C12.0999 59.0569 11.3015 58.4501 11.3015 57.144C11.3015 55.8379 12.1925 55.2628 13.0748 55.2628C14.0063 55.2628 14.8568 55.9101 14.8568 57.1844C14.8568 58.4587 14.0468 59.0569 13.0632 59.0569ZM29.3759 55.4564C28.9188 54.7687 28.2708 54.3844 27.4116 54.3844C25.9739 54.3844 24.8081 55.3871 24.8081 57.1758C24.8081 58.9644 25.9941 59.9382 27.4116 59.9382C28.2824 59.9382 28.9217 59.5423 29.3759 58.7853V59.8284H30.3883V54.5173H29.3759V55.4593V55.4564ZM29.3759 57.1758C29.1415 58.2593 28.4849 59.0482 27.5013 59.0482C26.5177 59.0482 25.8697 58.3605 25.8697 57.1671C25.8697 55.8812 26.5698 55.2744 27.5013 55.2744C28.4328 55.2744 29.1618 56.043 29.3759 57.1353V57.1758ZM22.4909 59.8255H23.5034V54.5144H22.4909V59.8255ZM32.0286 59.8255H33.0411V52.7142H32.0286V59.8255ZM5.8138 54.5982C5.8138 54.0203 6.23905 53.5349 7.16186 53.5349C7.80985 53.5349 8.39709 53.7776 8.81366 54.0203L9.13766 53.1303C8.73266 52.8067 7.89374 52.5957 7.15318 52.5957C5.75594 52.5957 4.75213 53.4366 4.75213 54.6994C4.75213 57.2278 8.26692 56.358 8.26692 57.8953C8.26692 58.5223 7.7491 59.0078 6.76843 59.0078C6.10019 59.0078 5.4117 58.765 4.91413 58.4703L4.67114 59.421C5.18895 59.733 6.04812 59.9382 6.77711 59.9382C8.18592 59.9382 9.3199 59.1204 9.3199 57.823C9.3199 55.4564 5.81669 56.3349 5.81669 54.5953L5.8138 54.5982ZM66.4185 55.4564C65.9614 54.7687 65.3134 54.3844 64.4542 54.3844C63.0165 54.3844 61.8507 55.3871 61.8507 57.1758C61.8507 58.9644 63.0368 59.9382 64.4542 59.9382C65.325 59.9382 65.9643 59.5423 66.4185 58.7853V59.8284H67.431V54.5173H66.4185V55.4593V55.4564ZM66.4185 57.1758C66.1842 58.2593 65.5275 59.0482 64.5439 59.0482C63.5604 59.0482 62.9124 58.3605 62.9124 57.1671C62.9124 55.8812 63.6124 55.2744 64.5439 55.2744C65.4754 55.2744 66.2044 56.043 66.4185 57.1353V57.1758ZM37.6117 59.8255H38.656V52.7142H37.6117V59.8255ZM78.0013 55.2744C78.6609 55.2744 79.0254 55.4651 79.4188 55.7281L79.711 54.8872C79.2539 54.5347 78.6898 54.3815 77.9579 54.3815C76.5405 54.3815 75.2242 55.3726 75.2242 57.2133C75.2242 59.054 76.5 59.9353 77.929 59.9353C78.6985 59.9353 79.2771 59.7533 79.6821 59.4614L79.468 58.6726C78.982 58.9644 78.5568 59.0569 77.9782 59.0569C77.067 59.0569 76.2859 58.3576 76.2859 57.1758C76.2859 55.9939 77.0959 55.2744 77.9984 55.2744H78.0013ZM85.6239 57.1613C85.6239 55.2831 84.4899 54.3844 83.0811 54.3844C81.6029 54.3844 80.4284 55.4449 80.4284 57.2104C80.4284 58.976 81.4612 59.9353 83.2229 59.9353C84.0647 59.9353 84.8429 59.7244 85.3607 59.3805L85.1669 58.6234C84.5189 58.976 83.9721 59.0771 83.3444 59.0771C82.2306 59.0771 81.5913 58.5628 81.4901 57.5023H85.5921C85.6124 57.4214 85.621 57.2798 85.621 57.1584L85.6239 57.1613ZM81.5017 56.777C81.6232 55.757 82.2104 55.2426 83.0609 55.2426C83.9114 55.2426 84.4581 55.7367 84.5594 56.777H81.5017ZM72.1492 54.396C71.2987 54.396 70.6102 54.8121 70.0837 55.6616V54.5173H69.0712V59.8284H70.0837V56.9764C70.5292 55.8321 71.0846 55.286 71.9148 55.286C72.5628 55.286 72.9794 55.7107 72.9794 56.6932V59.8284H73.9919V56.5921C73.9919 54.9016 73.1501 54.396 72.1492 54.396ZM43.3945 54.396C42.544 54.396 41.8555 54.8121 41.329 55.6616V54.5173H40.3165V59.8284H41.329V56.9764C41.7745 55.8321 42.3299 55.286 43.1631 55.286C43.811 55.286 44.2247 55.7107 44.2247 56.6932V59.8284H45.2372V56.5921C45.2372 54.9016 44.3954 54.396 43.3945 54.396ZM47.5457 55.9534C47.5457 55.4882 48.0201 55.2339 48.6305 55.2339C49.157 55.2339 49.6545 55.3958 50.1203 55.6674L50.3344 54.8092C49.8686 54.5462 49.2004 54.3844 48.6016 54.3844C47.2853 54.3844 46.5245 55.0432 46.5245 56.0141C46.5245 58.19 49.5012 57.1584 49.5012 58.372C49.5012 58.9095 49.0239 59.1002 48.3267 59.1002C47.7279 59.1002 47.1118 58.9182 46.6547 58.6437L46.4319 59.5134C46.8485 59.7273 47.5862 59.9382 48.3065 59.9382C49.5331 59.9382 50.505 59.2996 50.505 58.2882C50.505 56.2655 47.5486 57.2971 47.5486 55.9506L47.5457 55.9534ZM59.1777 55.6385V54.5144H58.1652V59.8255H59.1777V56.9619C59.5509 55.9708 60.1613 55.2917 60.8787 55.2917C61.0205 55.2917 61.1825 55.3235 61.3242 55.3726L61.4949 54.4913C61.3242 54.4306 61.142 54.4104 60.9568 54.4104C60.1873 54.4104 59.5914 54.945 59.1748 55.6356L59.1777 55.6385ZM55.5241 57.3896C55.0989 58.5021 54.5405 59.0395 53.7508 59.0395C53.1115 59.0395 52.6978 58.6148 52.6978 57.6439V54.5173H51.6853V57.7334C51.6853 59.4239 52.5271 59.9295 53.5078 59.9295C54.3699 59.9295 55.0265 59.5452 55.5241 58.7361V59.8284H56.5366V54.5173H55.5241V57.3896Z" fill="#00004E"/>
<path d="M85.9991 21.7522L77.1731 30.5799C76.7016 31.1203 76.0189 31.4324 75.3015 31.4324H73.3633C73.3633 27.2598 77.4306 23.6189 80.8673 21.7551C77.4306 19.8884 73.3633 16.2504 73.3633 12.0778H75.3015C76.0189 12.0778 76.7016 12.387 77.1731 12.9303L85.9991 21.758V21.7522Z" fill="#00BF00"/>
</svg>
