<svg width="312" height="275" viewBox="0 0 312 275" fill="none" xmlns="http://www.w3.org/2000/svg">
<path d="M341.744 241.418H-25.7227V241.602H341.744V241.418Z" fill="#EBEBEB"/>
<path d="M304.924 253.28H280.583V253.464H304.924V253.28Z" fill="#EBEBEB"/>
<path d="M217.702 255.286H211.315V255.47H217.702V255.286Z" fill="#EBEBEB"/>
<path d="M279.848 246.438H265.744V246.623H279.848V246.438Z" fill="#EBEBEB"/>
<path d="M44.5738 247.677H12.832V247.861H44.5738V247.677Z" fill="#EBEBEB"/>
<path d="M55.7742 247.677H51.1221V247.861H55.7742V247.677Z" fill="#EBEBEB"/>
<path d="M139.748 250.788H70.8994V250.973H139.748V250.788Z" fill="#EBEBEB"/>
<path d="M148.464 208.536H6.54803C4.23299 208.536 2.35156 206.648 2.35156 204.326V4.20979C2.35156 1.8874 4.23299 0 6.54803 0H148.464C150.779 0 152.66 1.8874 152.66 4.20979V204.326C152.66 206.648 150.779 208.536 148.464 208.536ZM6.54803 0.184316C4.33588 0.184316 2.5353 1.99062 2.5353 4.20979V204.326C2.5353 206.545 4.33588 208.351 6.54803 208.351H148.464C150.676 208.351 152.476 206.545 152.476 204.326V4.20979C152.476 1.99062 150.676 0.184316 148.464 0.184316H6.54803Z" fill="#EBEBEB"/>
<path d="M307.43 208.536H165.515C163.2 208.536 161.318 206.648 161.318 204.326V4.20979C161.318 1.8874 163.2 0 165.515 0H307.43C309.745 0 311.627 1.8874 311.627 4.20979V204.326C311.627 206.648 309.745 208.536 307.43 208.536ZM165.515 0.184316C163.303 0.184316 161.502 1.99062 161.502 4.20979V204.326C161.502 206.545 163.303 208.351 165.515 208.351H307.43C309.643 208.351 311.443 206.545 311.443 204.326V4.20979C311.443 1.99062 309.643 0.184316 307.43 0.184316H165.515Z" fill="#EBEBEB"/>
<path d="M238.352 99.7519C259.629 99.7519 276.878 82.4489 276.878 61.1045C276.878 39.7601 259.629 22.457 238.352 22.457C217.075 22.457 199.827 39.7601 199.827 61.1045C199.827 82.4489 217.075 99.7519 238.352 99.7519Z" fill="#E0E0E0"/>
<path d="M235.428 99.7519C256.704 99.7519 273.953 82.4489 273.953 61.1045C273.953 39.7601 256.704 22.457 235.428 22.457C214.151 22.457 196.902 39.7601 196.902 61.1045C196.902 82.4489 214.151 99.7519 235.428 99.7519Z" fill="#F5F5F5"/>
<path d="M260.612 86.3641C274.518 72.4143 274.518 49.7974 260.612 35.8476C246.707 21.8979 224.161 21.8979 210.255 35.8476C196.35 49.7974 196.35 72.4143 210.255 86.3641C224.161 100.314 246.706 100.314 260.612 86.3641Z" fill="white"/>
<path d="M241.498 87.1006C241.108 87.1006 240.756 86.8351 240.66 86.437L234.597 61.3037C234.487 60.8392 234.773 60.3673 235.236 60.2567C235.699 60.1461 236.162 60.4263 236.28 60.8982L242.343 86.0315C242.453 86.496 242.167 86.9679 241.704 87.0784C241.638 87.0932 241.564 87.1006 241.498 87.1006Z" fill="#F5F5F5"/>
<path d="M235.428 62.8371C234.987 62.8371 234.546 62.6675 234.208 62.3284L213.372 41.4269C212.696 40.7486 212.696 39.6575 213.372 38.9792C214.048 38.3009 215.136 38.3009 215.812 38.9792L235.428 58.6568L246.863 47.1849C247.539 46.5067 248.627 46.5067 249.303 47.1849C249.979 47.8632 249.979 48.9544 249.303 49.6327L236.648 62.3284C236.31 62.6675 235.869 62.8371 235.428 62.8371Z" fill="#EBEBEB"/>
<path d="M137.064 236.028H142.87V196.142H137.064V236.028Z" fill="#F0F0F0"/>
<path d="M19.6291 241.417L139.041 241.417V236.035L19.6291 236.035V241.417Z" fill="#F0F0F0"/>
<path d="M137.064 196.149H15.793V236.035H137.064V196.149Z" fill="#F5F5F5"/>
<path d="M129.215 203.087H23.6348V225.869H129.215V203.087Z" fill="#F0F0F0"/>
<path d="M50.7467 206.147H102.119C103.081 206.147 103.86 205.364 103.86 204.399V204.075C103.86 203.11 103.081 202.328 102.119 202.328H50.7467C49.7848 202.328 49.0049 203.11 49.0049 204.075V204.399C49.0049 205.364 49.7848 206.147 50.7467 206.147Z" fill="#F5F5F5"/>
<path d="M13.1326 196.149L137.064 196.149V192.588L13.1326 192.588V196.149Z" fill="#F0F0F0"/>
<path d="M145.656 192.581H137.064V196.142H145.656V192.581Z" fill="#E6E6E6"/>
<path d="M290.071 154.037H278.753V241.418H290.071V154.037Z" fill="#F0F0F0"/>
<path d="M179.691 241.41H278.753V154.03H179.691V241.41Z" fill="#F5F5F5"/>
<path d="M178.787 233.743H265.759V187.007H178.787V233.743Z" fill="#FAFAFA"/>
<path d="M178.787 182.046H265.759V166.659H178.787V182.046Z" fill="#FAFAFA"/>
<g style="mix-blend-mode:multiply" opacity="0.7">
<path d="M266.538 187.007H265.759V233.743H266.538V187.007Z" fill="#E6E6E6"/>
</g>
<g style="mix-blend-mode:multiply" opacity="0.7">
<path d="M266.538 166.666H265.759V182.053H266.538V166.666Z" fill="#E6E6E6"/>
</g>
<g style="mix-blend-mode:multiply" opacity="0.7">
<path d="M290.071 157.723H179.441V159.699H290.071V157.723Z" fill="#E6E6E6"/>
</g>
<path d="M291.394 152.843H278.753V158.556H291.394V152.843Z" fill="#F0F0F0"/>
<path d="M178.368 158.549H278.753V152.835H178.368V158.549Z" fill="#F5F5F5"/>
<path d="M216.027 136.018C215.292 134.986 214.946 133.71 214.704 132.464C214.513 131.204 214.425 129.914 214.513 128.645C214.667 126.102 215.218 123.588 216.115 121.229C216.512 120.027 217.078 118.906 217.585 117.763C218.173 116.658 218.761 115.559 219.422 114.497C220.113 113.458 220.819 112.433 221.568 111.445C222.369 110.487 223.156 109.528 224.038 108.643C223.611 109.83 223.104 110.951 222.597 112.064C222.09 113.178 221.642 114.313 221.12 115.404L219.701 118.729L219.047 120.403L218.709 121.229L218.415 122.069C217.57 124.296 216.909 126.574 216.416 128.881C216.166 130.039 215.997 131.211 215.902 132.398C215.814 133.585 215.806 134.794 216.027 136.018Z" fill="#E6E6E6"/>
<path d="M201.762 137.972C201.828 136.084 201.71 134.308 201.299 132.671C200.894 131.034 200.174 129.589 199.145 128.365C198.102 127.149 196.771 126.153 195.265 125.298C193.765 124.428 192.105 123.735 190.385 122.932C192.266 122.733 194.184 122.924 196.036 123.536C196.962 123.838 197.859 124.259 198.712 124.79C199.557 125.335 200.343 125.999 201.012 126.78C202.349 128.358 203.121 130.415 203.202 132.413C203.283 134.411 202.805 136.372 201.769 137.979L201.762 137.972Z" fill="#E6E6E6"/>
<path d="M202.401 137.714C202.327 135.568 202.151 133.511 201.82 131.521C201.482 129.538 200.99 127.613 200.211 125.836C199.446 124.052 198.41 122.416 197.102 120.941C195.786 119.466 194.199 118.198 192.457 116.93C194.581 117.247 196.654 118.147 198.41 119.525C200.166 120.912 201.578 122.784 202.459 124.863C203.363 126.935 203.746 129.184 203.731 131.373C203.702 133.563 203.319 135.745 202.401 137.714Z" fill="#E6E6E6"/>
<path d="M215.05 133.946C213.411 131.882 212.132 129.589 211.007 127.23C209.898 124.863 208.994 122.393 208.281 119.872C207.553 117.351 207.105 114.748 206.862 112.131C206.635 109.513 206.73 106.852 207.223 104.271C207.759 106.852 208.171 109.359 208.766 111.836C209.347 114.313 209.934 116.776 210.64 119.208C211.324 121.649 212.044 124.089 212.801 126.53C213.543 128.977 214.329 131.418 215.057 133.946H215.05Z" fill="#E6E6E6"/>
<path d="M214.388 133.762C212.521 132 210.97 129.965 209.552 127.864C208.148 125.741 206.914 123.507 205.855 121.184C204.782 118.869 203.959 116.429 203.327 113.952C202.724 111.467 202.394 108.894 202.482 106.336C203.408 108.732 204.209 111.069 205.157 113.362C206.105 115.647 207.046 117.926 208.082 120.174C209.104 122.423 210.155 124.664 211.22 126.92C212.279 129.176 213.366 131.425 214.395 133.769L214.388 133.762Z" fill="#E6E6E6"/>
<path d="M217.121 136.114C215.027 135.052 213.175 133.629 211.433 132.096C209.706 130.54 208.118 128.822 206.7 126.965C205.267 125.121 204.062 123.087 203.055 120.978C202.062 118.855 201.364 116.576 201.07 114.261C202.334 116.245 203.452 118.184 204.73 120.034C206.002 121.885 207.266 123.713 208.64 125.483C210 127.259 211.389 129.022 212.815 130.769C214.233 132.531 215.688 134.271 217.121 136.121V136.114Z" fill="#E6E6E6"/>
<path d="M213.123 133.769C211.095 132.981 209.287 131.757 207.626 130.378C205.965 128.992 204.481 127.392 203.187 125.645C202.518 124.79 201.96 123.846 201.394 122.924C200.894 121.958 200.35 121.015 199.975 119.99C199.116 117.992 198.623 115.847 198.439 113.694C199.593 115.544 200.541 117.38 201.681 119.105C202.202 119.99 202.812 120.823 203.356 121.686C203.966 122.511 204.51 123.374 205.142 124.178C206.355 125.822 207.626 127.429 208.964 129.007C210.294 130.592 211.676 132.147 213.116 133.762L213.123 133.769Z" fill="#E6E6E6"/>
<path d="M216.262 135.038C215.299 134.418 214.608 133.423 214.072 132.398C213.58 131.344 213.183 130.223 213.006 129.066C212.624 126.765 212.72 124.399 213.197 122.165C213.411 121.037 213.756 119.953 214.079 118.869C214.491 117.815 214.873 116.746 215.373 115.743C215.887 114.741 216.402 113.745 216.997 112.794C217.629 111.865 218.254 110.936 218.974 110.066C218.739 111.18 218.408 112.241 218.092 113.288C217.761 114.335 217.511 115.404 217.166 116.429C216.857 117.469 216.607 118.515 216.299 119.54L215.939 121.096C215.814 121.612 215.667 122.128 215.593 122.644C215.152 124.716 214.917 126.795 214.91 128.874C214.902 129.921 214.998 130.953 215.189 131.993C215.38 133.032 215.696 134.057 216.255 135.038H216.262Z" fill="#E6E6E6"/>
<path d="M214.895 132.686C213.249 131.019 212.161 128.844 211.485 126.581C210.831 124.303 210.574 121.863 210.845 119.481C210.882 118.884 211.037 118.302 211.125 117.712L211.294 116.834L211.551 115.979C211.735 115.412 211.904 114.836 212.117 114.283C212.359 113.745 212.609 113.207 212.867 112.676L213.256 111.887L213.734 111.143L214.711 109.683C215.431 108.769 216.232 107.906 217.056 107.103C216.673 108.223 216.166 109.226 215.755 110.273L215.174 111.843L214.873 112.617L214.645 113.414C214.491 113.937 214.329 114.46 214.16 114.977L213.8 116.562L213.609 117.351L213.499 118.147C213.432 118.678 213.3 119.201 213.271 119.739C213.028 121.87 213.094 124.03 213.352 126.19C213.616 128.358 214.123 130.511 214.888 132.7L214.895 132.686Z" fill="#E6E6E6"/>
<path d="M211.793 131.786L201.262 122.386L202.82 135.148L211.793 131.786Z" fill="#E6E6E6"/>
<path d="M191.502 130.068H222.053L218.048 152.842H195.5L191.502 130.068Z" fill="#F5F5F5"/>
<path d="M210.588 130.068H222.053L218.047 152.842H212.028L210.588 130.068Z" fill="#EBEBEB"/>
<path d="M249.04 136.062C249.187 135.008 249.128 134.005 248.915 133.04C248.702 132.081 248.422 131.16 248.004 130.282C247.202 128.535 246.144 126.898 244.895 125.379C244.623 124.974 244.263 124.627 243.939 124.244C243.616 123.868 243.3 123.485 242.962 123.116C242.249 122.408 241.595 121.641 240.875 120.934C240.14 120.233 239.449 119.474 238.707 118.751C237.972 118.022 237.222 117.299 236.531 116.473C237.523 116.842 238.471 117.314 239.42 117.778C240.36 118.265 241.227 118.877 242.117 119.459C242.565 119.747 242.969 120.093 243.381 120.432C243.792 120.772 244.197 121.118 244.601 121.465C245.365 122.217 246.129 122.983 246.798 123.839C248.173 125.512 249.253 127.503 249.819 129.663C250.105 130.739 250.201 131.875 250.105 132.981C250.003 134.079 249.694 135.192 249.04 136.055V136.062Z" fill="#E6E6E6"/>
<path d="M266.222 132.973C265.45 132.339 264.907 131.44 264.569 130.452C264.377 129.958 264.319 129.427 264.245 128.896C264.223 128.631 264.245 128.358 264.245 128.093C264.26 127.82 264.245 127.547 264.319 127.282C264.686 125.121 265.958 123.256 267.435 121.855C267.81 121.501 268.221 121.207 268.611 120.882C269.015 120.58 269.404 120.241 269.845 120.012C270.279 119.761 270.705 119.503 271.139 119.268C271.359 119.15 271.572 119.017 271.793 118.914L272.476 118.626C272.932 118.434 273.388 118.257 273.843 118.081C274.299 117.904 274.762 117.741 275.24 117.631C276.195 117.402 277.136 117.166 278.113 117.048C277.342 117.682 276.533 118.198 275.74 118.729C275.335 118.973 274.946 119.245 274.564 119.526C274.181 119.798 273.792 120.056 273.402 120.314C272.601 120.794 271.918 121.406 271.168 121.922C270.786 122.172 270.463 122.482 270.125 122.77C269.794 123.064 269.426 123.33 269.11 123.639C267.839 124.849 266.773 126.19 266.178 127.746C266.009 128.129 265.958 128.542 265.833 128.955C265.796 129.375 265.708 129.803 265.737 130.245C265.722 131.13 265.899 132.052 266.215 132.981L266.222 132.973Z" fill="#E6E6E6"/>
<path d="M265.436 132.973C264.099 131.314 263.437 129.125 263.386 126.92C263.327 124.701 263.952 122.467 265.025 120.528L265.906 119.127C266.245 118.7 266.605 118.287 266.965 117.874L267.509 117.262L268.119 116.724C268.523 116.37 268.934 116.023 269.353 115.684C270.228 115.072 271.139 114.519 272.058 114.011C273.035 113.59 273.998 113.17 274.998 112.861C274.27 113.642 273.498 114.32 272.741 114.999C272.036 115.736 271.316 116.429 270.625 117.129C270.309 117.505 269.985 117.874 269.655 118.235L269.162 118.773L268.736 119.363C268.457 119.754 268.148 120.123 267.876 120.513L267.141 121.73C266.23 123.374 265.568 125.136 265.282 127.023C264.98 128.911 265.017 130.901 265.421 132.966L265.436 132.973Z" fill="#E6E6E6"/>
<path d="M249.981 134.064C250.584 131.786 251.252 129.589 251.892 127.392C252.539 125.202 253.156 123.02 253.729 120.838C254.28 118.648 254.773 116.466 255.199 114.247C255.581 112.02 255.838 109.794 256.044 107.427C256.86 109.646 257.125 112.057 257.11 114.431C257.029 116.805 256.676 119.164 256.088 121.45C255.486 123.735 254.67 125.947 253.67 128.07C252.649 130.179 251.488 132.236 249.974 134.05L249.981 134.064Z" fill="#E6E6E6"/>
<path d="M250.745 133.696C251.7 131.447 252.729 129.302 253.743 127.149C254.765 125.003 255.779 122.88 256.764 120.742C257.727 118.597 258.675 116.459 259.549 114.284C260.409 112.094 261.173 109.889 261.908 107.552C262.195 109.985 261.908 112.463 261.379 114.859C260.813 117.247 259.983 119.555 258.976 121.774C257.954 123.986 256.749 126.102 255.397 128.115C254.022 130.113 252.531 132.037 250.737 133.703L250.745 133.696Z" fill="#E6E6E6"/>
<path d="M247.754 136.505C249.187 134.529 250.664 132.664 252.134 130.798C253.604 128.94 255.067 127.097 256.5 125.232C257.918 123.359 259.314 121.487 260.659 119.555C261.982 117.616 263.217 115.633 264.459 113.517C264.194 115.957 263.357 118.302 262.32 120.521C261.24 122.718 259.91 124.782 258.44 126.721C256.955 128.646 255.309 130.444 253.538 132.096C251.752 133.733 249.871 135.274 247.754 136.497V136.505Z" fill="#E6E6E6"/>
<path d="M252.252 133.29C253.656 131.521 255.059 129.855 256.441 128.174C257.823 126.493 259.168 124.812 260.469 123.109C261.777 121.406 262.989 119.651 264.18 117.859C265.37 116.06 266.392 114.18 267.517 112.204C267.377 114.453 266.774 116.687 265.87 118.766C264.937 120.83 263.783 122.806 262.409 124.591C261.034 126.382 259.491 128.034 257.808 129.508C256.11 130.968 254.295 132.31 252.252 133.283V133.29Z" fill="#E6E6E6"/>
<path d="M248.658 135.347C249.525 133.615 249.826 131.853 249.775 130.164C249.708 128.469 249.216 126.832 248.496 125.261L248.246 124.664L247.93 124.089L247.313 122.917C246.82 122.172 246.379 121.391 245.872 120.639C245.336 119.909 244.851 119.12 244.307 118.361C243.763 117.601 243.204 116.842 242.712 115.987C243.572 116.436 244.366 116.975 245.167 117.513C245.953 118.081 246.644 118.759 247.364 119.415C247.731 119.739 248.018 120.137 248.342 120.506C248.658 120.882 248.966 121.266 249.268 121.656L250.054 122.924L250.429 123.573L250.737 124.266C251.583 126.087 252.016 128.218 251.693 130.282C251.362 132.324 250.318 134.278 248.665 135.347H248.658Z" fill="#E6E6E6"/>
<path d="M250.024 132.988C250.642 131.071 251.075 129.206 251.259 127.363C251.443 125.527 251.332 123.728 250.869 122.04C250.649 121.192 250.326 120.366 249.921 119.577C249.524 118.781 249.047 118.007 248.496 117.27C247.408 115.773 246.07 114.387 244.659 112.942C246.599 113.509 248.4 114.556 249.929 115.979C250.7 116.687 251.376 117.52 251.942 118.427C252.516 119.334 252.949 120.344 253.236 121.391C253.816 123.492 253.736 125.726 253.148 127.739C252.545 129.744 251.516 131.595 250.032 132.988H250.024Z" fill="#E6E6E6"/>
<path d="M253.618 131.248L265.113 120.174L264.65 131.034L253.618 131.248Z" fill="#E6E6E6"/>
<path d="M241.044 130.068H271.602L267.597 152.842H245.049L241.044 130.068Z" fill="#F5F5F5"/>
<path d="M260.13 130.068H271.602L267.597 152.842H261.578L260.13 130.068Z" fill="#EBEBEB"/>
<path d="M50.6141 26.3721V145.772C50.6141 156.116 42.2579 164.506 31.9395 164.506H118.684C128.995 164.506 137.358 156.123 137.358 145.772V26.3721H50.6141Z" fill="#F5F5F5"/>
<path d="M123.733 56.5999H67.6943V112.816H123.733V56.5999Z" fill="#F0F0F0"/>
<path d="M122.013 54.8746H65.9746V111.091H122.013V54.8746Z" fill="white"/>
<path d="M79.7328 119.407H65.4824V133.703H79.7328V119.407Z" fill="white"/>
<path d="M122.006 119.407H107.756V133.703H122.006V119.407Z" fill="white"/>
<path d="M100.869 119.407H86.6191V133.703H100.869V119.407Z" fill="white"/>
<path d="M137.358 26.3721H50.6143V40.5865H137.358V26.3721Z" fill="#F0F0F0"/>
<path d="M55.8252 21.8083V30.9357C55.8252 32.3365 56.957 33.4792 58.3607 33.4792C59.7571 33.4792 60.8962 32.3439 60.8962 30.9357V21.8083C60.8962 20.4075 59.7644 19.2648 58.3607 19.2648C56.9643 19.2648 55.8252 20.4002 55.8252 21.8083Z" fill="#E6E6E6"/>
<path d="M127.084 21.8083V30.9357C127.084 32.3365 128.216 33.4792 129.62 33.4792C131.016 33.4792 132.155 32.3439 132.155 30.9357V21.8083C132.155 20.4075 131.023 19.2648 129.62 19.2648C128.223 19.2648 127.084 20.4002 127.084 21.8083Z" fill="#E6E6E6"/>
<path d="M112.834 21.8083V30.9357C112.834 32.3365 113.966 33.4792 115.37 33.4792C116.766 33.4792 117.905 32.3439 117.905 30.9357V21.8083C117.905 20.4075 116.773 19.2648 115.37 19.2648C113.973 19.2648 112.834 20.4002 112.834 21.8083Z" fill="#E6E6E6"/>
<path d="M98.584 21.8083V30.9357C98.584 32.3365 99.7158 33.4792 101.12 33.4792C102.516 33.4792 103.655 32.3439 103.655 30.9357V21.8083C103.655 20.4075 102.523 19.2648 101.12 19.2648C99.7231 19.2648 98.584 20.4002 98.584 21.8083Z" fill="#E6E6E6"/>
<path d="M84.333 21.8083V30.9357C84.333 32.3365 85.4648 33.4792 86.8685 33.4792C88.2649 33.4792 89.404 32.3439 89.404 30.9357V21.8083C89.404 20.4075 88.2722 19.2648 86.8685 19.2648C85.4722 19.2648 84.333 20.4002 84.333 21.8083Z" fill="#E6E6E6"/>
<path d="M70.0752 21.8083V30.9357C70.0752 32.3365 71.207 33.4792 72.6107 33.4792C74.0071 33.4792 75.1462 32.3439 75.1462 30.9357V21.8083C75.1462 20.4075 74.0144 19.2648 72.6107 19.2648C71.2143 19.2648 70.0752 20.4002 70.0752 21.8083Z" fill="#E6E6E6"/>
<path d="M110.879 156.661C110.879 160.989 114.377 164.499 118.691 164.499H21.0848C16.7707 164.499 13.2725 160.989 13.2725 156.661H110.879Z" fill="#E6E6E6"/>
<path d="M158.011 274.712C236.709 274.712 300.507 270.976 300.507 266.367C300.507 261.757 236.709 258.021 158.011 258.021C79.3124 258.021 15.5146 261.757 15.5146 266.367C15.5146 270.976 79.3124 274.712 158.011 274.712Z" fill="#F5F5F5"/>
<path d="M191.94 143.914L118.489 143.917C115.959 143.917 113.909 145.968 113.91 148.497C113.91 151.026 115.96 153.076 118.49 153.076L191.941 153.073C194.47 153.073 196.52 151.022 196.52 148.493C196.52 145.964 194.469 143.914 191.94 143.914Z" fill="#004416"/>
<path d="M191.947 260.086L118.496 260.089C115.966 260.089 113.916 262.14 113.916 264.669C113.917 267.198 115.967 269.248 118.497 269.248L191.947 269.245C194.477 269.245 196.527 267.194 196.527 264.665C196.526 262.136 194.476 260.086 191.947 260.086Z" fill="#004416"/>
<path fill-rule="evenodd" clip-rule="evenodd" d="M155.219 206.582C174.233 196.176 187.027 195.18 187.026 172.908L187.025 153.072L123.405 153.076L123.407 172.912C123.408 195.184 136.203 196.179 155.219 206.582Z" fill="white"/>
<path fill-rule="evenodd" clip-rule="evenodd" d="M169.574 199.385L143.264 172.994L134.093 166.58L123.405 153.076L123.407 172.912C123.408 195.184 136.203 196.179 155.219 206.582C160.539 203.67 165.372 201.495 169.574 199.385Z" fill="#81E791"/>
<path fill-rule="evenodd" clip-rule="evenodd" d="M187.031 240.251C187.029 217.979 174.235 216.985 155.219 206.582C136.204 216.987 123.41 217.984 123.411 240.256L123.412 260.092L187.032 260.088L187.031 240.251Z" fill="white"/>
<path fill-rule="evenodd" clip-rule="evenodd" d="M187.031 260.087L140.863 213.778C130.046 219.21 123.41 224.215 123.411 240.255L123.412 260.092L187.031 260.087Z" fill="#81E791"/>
<path fill-rule="evenodd" clip-rule="evenodd" d="M153.628 260.09C146.575 245.398 142.32 229.693 140.863 213.779C130.046 219.211 123.41 224.215 123.411 240.256L123.412 260.092L153.628 260.09Z" fill="#00BF00"/>
<path fill-rule="evenodd" clip-rule="evenodd" d="M123.407 172.912C123.408 188.678 129.82 193.782 140.312 199.109C140.564 183.477 143.499 167.881 149.116 153.074L123.405 153.075L123.407 172.912Z" fill="#D6D6D6"/>
<path fill-rule="evenodd" clip-rule="evenodd" d="M140.312 199.109C140.453 190.349 141.437 181.6 143.264 172.994L123.405 153.076L123.407 172.912C123.408 188.679 129.82 193.783 140.312 199.109Z" fill="#00BF00"/>
<path d="M191.952 143.914L118.472 143.918C115.951 143.918 113.907 145.968 113.908 148.497C113.908 151.026 115.952 153.076 118.473 153.076L191.953 153.073C194.475 153.073 196.518 151.023 196.518 148.494C196.518 145.964 194.474 143.914 191.952 143.914Z" stroke="#00004E" stroke-width="2" stroke-miterlimit="2.6131" stroke-linecap="round" stroke-linejoin="round"/>
<path d="M187.025 154.408L187.026 172.908C187.028 195.18 174.233 196.176 155.219 206.582C136.203 196.179 123.408 195.184 123.407 172.912L123.406 154.412" stroke="#00004E" stroke-width="2" stroke-miterlimit="2.6131" stroke-linecap="round" stroke-linejoin="round"/>
<path d="M187.032 258.974L187.031 240.252C187.029 217.98 174.235 216.985 155.219 206.582C136.204 216.988 123.41 217.984 123.411 240.256L123.412 258.979" stroke="#00004E" stroke-width="2" stroke-miterlimit="2.6131" stroke-linecap="round" stroke-linejoin="round"/>
<path d="M191.961 260.086L118.481 260.09C115.96 260.09 113.916 262.14 113.916 264.669C113.917 267.199 115.961 269.249 118.482 269.249L191.962 269.246C194.483 269.245 196.527 267.195 196.527 264.666C196.526 262.136 194.482 260.086 191.961 260.086Z" stroke="#00004E" stroke-width="2" stroke-miterlimit="2.6131" stroke-linecap="round" stroke-linejoin="round"/>
</svg>
