<svg width="208" height="174" viewBox="0 0 208 174" fill="none" xmlns="http://www.w3.org/2000/svg">
<path d="M140.939 42.4141L67.4876 42.4173C64.9585 42.4174 62.9084 44.4677 62.9087 46.9969C62.9089 49.526 64.9594 51.5762 67.4886 51.5761L140.94 51.5729C143.469 51.5728 145.519 49.5224 145.519 46.9933C145.519 44.4641 143.468 42.414 140.939 42.4141Z" fill="#004416"/>
<path d="M140.947 158.586L67.4956 158.589C64.9664 158.589 62.9162 160.64 62.9165 163.169C62.9168 165.698 64.9673 167.748 67.4966 167.748L140.947 167.745C143.477 167.745 145.527 165.695 145.527 163.165C145.526 160.636 143.476 158.586 140.947 158.586Z" fill="#004416"/>
<path fill-rule="evenodd" clip-rule="evenodd" d="M104.219 105.082C123.233 94.6763 136.027 93.68 136.026 71.4081L136.025 51.5716L72.4053 51.5759L72.4066 71.4124C72.4081 93.6846 85.2025 94.6789 104.219 105.082Z" fill="white"/>
<path fill-rule="evenodd" clip-rule="evenodd" d="M118.573 97.885L92.2626 71.4943L83.0923 65.0795L72.4043 51.5757L72.4056 71.4121C72.4071 93.6843 85.2016 94.6786 104.218 105.082C109.538 102.17 114.371 99.9953 118.573 97.885Z" fill="#81E791"/>
<path fill-rule="evenodd" clip-rule="evenodd" d="M136.032 138.751C136.03 116.479 123.236 115.485 104.219 105.082C85.2048 115.487 72.4107 116.484 72.412 138.756L72.4133 158.592L136.033 158.588L136.032 138.751Z" fill="white"/>
<path fill-rule="evenodd" clip-rule="evenodd" d="M136.031 158.587L89.8626 112.278C79.0458 117.71 72.4098 122.715 72.4109 138.755L72.4122 158.592L136.031 158.587Z" fill="#81E791"/>
<path fill-rule="evenodd" clip-rule="evenodd" d="M102.628 158.59C95.575 143.898 91.3197 128.193 89.8626 112.279C79.0458 117.711 72.4098 122.715 72.4108 138.756L72.4122 158.592L102.628 158.59Z" fill="#00BF00"/>
<path fill-rule="evenodd" clip-rule="evenodd" d="M72.4068 71.412C72.4078 87.1786 78.8199 92.2822 89.3118 97.6092C89.5645 81.9773 92.4991 66.3808 98.1158 51.5738L72.4054 51.5756L72.4068 71.412Z" fill="#D6D6D6"/>
<path fill-rule="evenodd" clip-rule="evenodd" d="M89.3106 97.6093C89.4523 88.8491 90.4362 80.0999 92.2626 71.4943L72.4043 51.5757L72.4056 71.4121C72.4067 87.1788 78.819 92.2825 89.3106 97.6093Z" fill="#00BF00"/>
<path d="M140.953 42.4146L67.4731 42.4178C64.952 42.4179 62.9084 44.4682 62.9087 46.9974C62.9089 49.5265 64.9529 51.5767 67.4741 51.5766L140.954 51.5734C143.475 51.5733 145.519 49.5229 145.519 46.9938C145.519 44.4646 143.475 42.4145 140.953 42.4146Z" stroke="#00004E" stroke-width="2" stroke-miterlimit="2.6131" stroke-linecap="round" stroke-linejoin="round"/>
<path d="M136.025 52.9081L136.026 71.4084C136.028 93.6801 123.233 94.6764 104.219 105.082C85.2027 94.679 72.4085 93.6844 72.4067 71.4125L72.4055 52.9121" stroke="#00004E" stroke-width="2" stroke-miterlimit="2.6131" stroke-linecap="round" stroke-linejoin="round"/>
<path d="M136.031 157.474L136.03 138.752C136.028 116.48 123.234 115.485 104.218 105.082C85.2028 115.488 72.4088 116.484 72.4101 138.756L72.4113 157.479" stroke="#00004E" stroke-width="2" stroke-miterlimit="2.6131" stroke-linecap="round" stroke-linejoin="round"/>
<path d="M140.961 158.586L67.4811 158.59C64.9599 158.59 62.9162 160.64 62.9165 163.169C62.9168 165.699 64.9608 167.749 67.4821 167.749L140.962 167.746C143.483 167.746 145.527 165.695 145.527 163.166C145.526 160.637 143.482 158.586 140.961 158.586Z" stroke="#00004E" stroke-width="2" stroke-miterlimit="2.6131" stroke-linecap="round" stroke-linejoin="round"/>
</svg>
